<?xml version="1.0" standalone="no"?>
<!DOCTYPE svg PUBLIC "-//W3C//DTD SVG 20010904//EN"
 "http://www.w3.org/TR/2001/REC-SVG-20010904/DTD/svg10.dtd">
<svg version="1.0" xmlns="http://www.w3.org/2000/svg"
 width="2000.000000pt" height="1500.000000pt" viewBox="0 0 2000.000000 1500.000000"
 preserveAspectRatio="xMidYMid meet">
<metadata>
Created by potrace 1.16, written by Peter Selinger 2001-2019
</metadata>
<g transform="translate(0.000000,1500.000000) scale(0.100000,-0.100000)"
fill="#000000" stroke="none">
<path d="M8555 12565 c-22 -8 -61 -15 -87 -15 -26 0 -59 -5 -75 -11 -15 -6
-71 -15 -123 -20 -52 -4 -112 -15 -132 -23 -21 -9 -61 -16 -91 -16 -31 0 -61
-6 -73 -15 -11 -8 -41 -15 -70 -15 -28 0 -59 -6 -70 -15 -10 -8 -35 -15 -54
-15 -19 0 -52 -9 -73 -20 -20 -11 -52 -20 -71 -20 -18 0 -39 -7 -46 -15 -7 -8
-29 -15 -49 -15 -20 0 -45 -7 -55 -15 -11 -8 -30 -15 -43 -15 -13 0 -40 -9
-60 -20 -21 -11 -47 -20 -59 -20 -12 0 -27 -7 -34 -15 -7 -8 -24 -15 -37 -15
-14 0 -37 -6 -51 -14 -61 -31 -120 -56 -134 -56 -9 0 -21 -7 -28 -15 -7 -8
-23 -15 -36 -15 -12 0 -29 -7 -38 -15 -8 -8 -23 -15 -34 -15 -10 0 -29 -9 -42
-20 -13 -11 -32 -20 -42 -20 -10 0 -21 -7 -24 -15 -4 -8 -16 -15 -29 -15 -12
0 -28 -7 -35 -15 -7 -8 -21 -15 -31 -15 -11 0 -27 -9 -36 -20 -10 -11 -28 -20
-41 -20 -12 0 -25 -7 -28 -15 -4 -8 -12 -15 -20 -15 -7 0 -33 -13 -57 -30 -24
-16 -56 -34 -70 -39 -15 -6 -27 -15 -27 -21 0 -5 -7 -10 -15 -10 -15 0 -63
-30 -93 -57 -7 -7 -20 -13 -27 -13 -8 0 -18 -6 -22 -12 -9 -15 -37 -33 -71
-48 -13 -5 -37 -23 -55 -40 -18 -16 -37 -30 -43 -30 -6 0 -21 -9 -34 -20 -13
-11 -27 -20 -32 -20 -4 0 -8 -6 -8 -14 0 -7 -8 -17 -17 -20 -29 -10 -62 -31
-96 -62 -17 -16 -63 -53 -102 -83 -38 -30 -91 -76 -117 -102 -26 -27 -49 -49
-52 -49 -15 0 -271 -250 -341 -333 -22 -27 -66 -76 -98 -110 -32 -34 -81 -92
-110 -129 -28 -38 -55 -68 -59 -68 -4 0 -8 -7 -8 -15 0 -8 -4 -15 -9 -15 -8 0
-47 -56 -60 -84 -2 -5 -16 -21 -31 -36 -15 -15 -31 -37 -35 -49 -3 -11 -11
-21 -16 -21 -5 0 -14 -11 -19 -25 -5 -14 -14 -25 -19 -25 -5 0 -12 -11 -15
-25 -4 -14 -11 -25 -16 -25 -6 0 -10 -5 -10 -12 0 -6 -7 -20 -17 -30 -18 -20
-36 -50 -52 -85 -6 -13 -15 -23 -21 -23 -5 0 -10 -9 -10 -20 0 -11 -9 -28 -20
-37 -11 -10 -20 -23 -20 -29 0 -6 -7 -17 -15 -24 -8 -7 -15 -20 -15 -30 0 -10
-7 -20 -15 -24 -8 -3 -15 -16 -15 -28 0 -13 -9 -31 -20 -41 -11 -9 -20 -26
-20 -37 0 -11 -7 -23 -15 -26 -8 -4 -15 -16 -15 -28 0 -12 -9 -29 -20 -39 -11
-9 -20 -25 -20 -36 0 -10 -7 -24 -15 -31 -8 -7 -15 -23 -15 -35 0 -13 -7 -25
-15 -29 -8 -3 -15 -15 -15 -27 0 -13 -7 -30 -15 -39 -8 -9 -16 -25 -18 -36 -1
-10 -10 -30 -20 -44 -9 -13 -17 -35 -17 -48 0 -12 -7 -25 -15 -28 -9 -4 -15
-19 -15 -40 0 -21 -6 -37 -14 -40 -8 -3 -17 -22 -21 -42 -4 -20 -13 -45 -21
-56 -8 -11 -14 -32 -14 -47 0 -15 -7 -32 -15 -39 -8 -7 -15 -27 -15 -45 0 -18
-7 -38 -15 -45 -8 -7 -15 -25 -15 -41 0 -16 -9 -46 -20 -66 -11 -21 -20 -52
-20 -69 0 -17 -7 -37 -15 -44 -10 -8 -15 -30 -15 -61 0 -29 -6 -53 -15 -63 -9
-8 -15 -33 -15 -58 0 -24 -7 -56 -16 -73 -8 -16 -17 -47 -21 -70 -4 -34 -11
-43 -42 -57 -21 -10 -45 -18 -53 -18 -9 0 -21 -7 -28 -15 -7 -8 -23 -15 -35
-15 -12 0 -28 -7 -35 -15 -7 -8 -18 -15 -25 -15 -14 0 -165 -76 -180 -91 -5
-5 -16 -9 -25 -9 -9 0 -25 -9 -35 -20 -10 -11 -25 -20 -33 -20 -8 0 -31 -13
-51 -28 -20 -15 -48 -33 -63 -40 -16 -6 -28 -16 -28 -22 0 -5 -6 -10 -14 -10
-8 0 -16 -7 -20 -15 -3 -8 -14 -15 -24 -15 -10 0 -33 -16 -52 -35 -19 -19 -39
-35 -44 -35 -10 0 -83 -58 -132 -105 -18 -16 -56 -50 -85 -75 -60 -49 -175
-165 -229 -229 -19 -23 -49 -57 -65 -74 -52 -54 -105 -124 -99 -130 3 -3 -3
-12 -15 -19 -12 -7 -21 -18 -21 -25 0 -7 -4 -13 -8 -13 -10 0 -62 -77 -62 -91
0 -5 -5 -9 -11 -9 -5 0 -15 -13 -20 -30 -6 -16 -14 -30 -18 -30 -4 0 -20 -25
-36 -55 -15 -30 -31 -55 -36 -55 -5 0 -9 -9 -9 -19 0 -11 -4 -22 -9 -26 -5 -3
-23 -33 -41 -68 -17 -34 -35 -69 -39 -77 -20 -36 -51 -108 -51 -119 0 -7 -7
-19 -15 -27 -8 -9 -15 -26 -15 -38 0 -13 -7 -29 -15 -36 -8 -7 -15 -25 -15
-40 0 -15 -6 -33 -14 -39 -7 -6 -16 -30 -19 -53 -3 -22 -11 -44 -17 -48 -7 -4
-15 -28 -17 -54 -3 -25 -12 -51 -19 -57 -8 -6 -14 -30 -14 -53 0 -23 -6 -50
-14 -61 -7 -11 -16 -48 -19 -83 -3 -34 -10 -69 -17 -77 -7 -8 -14 -52 -17 -97
-3 -46 -11 -101 -19 -123 -12 -33 -14 -100 -11 -380 5 -349 5 -365 17 -365 4
0 9 -40 12 -89 2 -49 10 -96 16 -104 7 -8 15 -43 18 -78 4 -35 12 -74 20 -86
8 -12 14 -40 14 -61 0 -23 6 -45 15 -52 8 -7 15 -29 15 -49 0 -20 7 -47 16
-60 10 -13 18 -37 20 -53 2 -16 11 -39 19 -51 8 -12 15 -34 15 -50 0 -15 7
-30 15 -33 8 -4 15 -18 15 -34 0 -16 7 -35 15 -43 7 -8 17 -27 21 -43 4 -16
13 -35 21 -42 11 -12 18 -41 14 -65 0 -4 4 -6 10 -5 7 2 16 -11 20 -28 5 -17
16 -37 24 -44 8 -7 15 -21 15 -31 0 -11 4 -19 10 -19 5 0 12 -11 16 -25 3 -14
12 -29 20 -33 8 -4 15 -20 16 -34 1 -15 5 -25 9 -22 4 2 17 -13 29 -34 12 -20
21 -37 19 -38 -2 0 8 -16 24 -35 34 -42 35 -44 71 -96 16 -24 32 -43 35 -43 3
0 12 -13 19 -30 7 -16 32 -49 55 -74 23 -25 57 -60 75 -79 17 -20 32 -38 32
-41 0 -3 24 -31 53 -62 28 -31 51 -61 49 -65 -1 -5 2 -8 7 -7 4 2 35 -22 68
-53 33 -30 67 -58 76 -62 9 -3 17 -11 17 -17 0 -5 7 -10 15 -10 8 0 15 -6 15
-14 0 -7 16 -24 35 -37 19 -13 35 -27 35 -31 0 -4 14 -15 30 -23 17 -9 28 -20
25 -25 -3 -6 1 -7 10 -4 16 6 72 -43 67 -59 -1 -5 1 -6 6 -3 5 3 31 -10 58
-29 27 -19 61 -40 77 -46 15 -6 27 -15 27 -20 0 -5 6 -9 14 -9 8 0 16 -6 19
-14 3 -8 19 -17 35 -21 17 -3 33 -13 36 -21 3 -8 14 -14 25 -14 11 0 26 -6 33
-14 8 -7 40 -26 71 -40 31 -15 59 -31 62 -37 4 -5 17 -9 29 -9 13 0 29 -6 35
-14 6 -7 25 -16 42 -20 17 -3 37 -13 45 -21 9 -8 25 -15 38 -15 12 0 27 -5 33
-11 7 -7 29 -15 50 -19 21 -3 37 -11 36 -16 -1 -5 10 -11 25 -12 49 -4 61 -8
79 -23 10 -9 36 -17 58 -18 21 -2 48 -9 59 -17 11 -8 40 -14 64 -14 23 0 53
-6 65 -14 12 -8 53 -17 92 -21 38 -4 72 -10 75 -15 3 -5 33 -12 65 -16 33 -3
77 -12 98 -20 56 -21 9434 -21 9499 0 24 8 68 16 99 19 31 3 66 10 77 16 12 6
52 14 89 16 37 3 79 8 93 12 14 3 28 6 33 5 4 -1 7 2 7 8 0 5 24 10 53 10 31
0 61 6 73 15 10 8 34 15 52 15 18 0 49 7 70 16 20 9 55 18 77 21 22 3 45 11
51 18 6 8 31 15 57 16 25 2 45 7 44 13 -1 6 17 13 40 16 23 3 48 12 56 19 9 6
28 14 44 17 15 3 35 12 43 19 9 8 32 15 52 17 20 1 36 6 35 12 -1 5 12 12 29
16 17 4 42 14 55 23 13 10 31 17 40 17 9 0 22 7 29 15 7 8 21 15 32 15 11 0
31 9 45 20 14 11 31 20 38 20 7 0 18 7 25 15 7 8 19 15 28 15 8 0 23 7 33 16
9 8 26 16 37 17 11 0 19 4 16 8 -2 4 4 10 15 14 10 3 29 14 41 25 13 11 32 20
42 20 10 0 21 7 24 15 4 8 13 15 20 15 17 0 75 39 87 58 4 6 16 12 25 12 9 0
35 16 56 35 37 33 50 39 69 36 5 -1 6 2 3 7 -3 5 6 14 19 20 14 7 25 16 25 22
0 5 7 10 15 10 8 0 15 5 15 10 0 10 48 35 63 32 4 -1 6 2 5 6 -2 5 13 22 32
38 19 16 39 34 43 42 5 7 12 10 18 7 5 -4 9 -2 9 3 0 5 25 28 55 51 65 49 349
331 415 411 25 30 50 59 57 63 7 4 13 12 13 18 0 5 14 23 30 39 17 16 30 32
30 36 0 4 7 14 15 23 47 52 55 62 55 67 0 4 15 25 33 48 19 23 36 49 40 59 3
9 11 17 17 17 5 0 10 7 10 15 0 7 6 18 13 22 7 4 18 21 25 36 7 15 16 26 20
23 4 -2 9 5 9 17 1 11 9 25 18 29 8 5 15 18 15 29 0 11 7 22 15 25 8 4 15 12
15 19 0 6 9 22 20 35 11 13 20 29 20 35 0 7 7 18 15 25 8 7 15 21 15 31 0 10
6 22 14 26 7 4 18 22 23 38 6 17 15 29 20 28 5 -1 10 10 11 24 1 15 9 34 17
43 8 9 15 24 15 32 0 9 7 21 15 28 8 7 15 20 15 30 0 9 9 29 20 43 11 14 20
34 20 45 0 11 7 25 15 32 8 7 15 21 15 32 0 11 6 32 14 46 7 15 18 41 23 57 5
17 14 29 19 28 5 -1 10 14 12 34 1 19 9 44 17 56 8 12 15 33 15 47 0 15 7 35
15 46 8 10 15 30 15 44 0 14 9 43 20 65 11 22 19 56 20 76 0 20 7 42 15 49 10
8 15 30 15 65 0 35 5 57 15 65 9 7 15 29 15 55 0 23 9 71 20 105 11 34 20 87
20 117 0 52 16 117 46 191 20 47 20 839 1 885 -31 73 -47 138 -47 190 0 30 -9
83 -20 117 -11 34 -20 82 -20 105 0 26 -6 48 -15 55 -10 8 -15 30 -15 65 0 35
-5 57 -15 65 -8 7 -15 29 -15 49 -1 20 -9 54 -20 76 -11 22 -20 51 -20 65 0
14 -7 34 -15 44 -8 11 -15 31 -15 45 0 14 -7 35 -15 45 -8 11 -15 29 -15 40 0
12 -9 35 -20 51 -11 17 -20 39 -20 50 0 11 -7 29 -15 39 -8 11 -15 30 -15 42
0 12 -7 27 -15 34 -8 7 -15 20 -15 29 0 9 -9 30 -20 46 -11 17 -20 37 -20 46
0 9 -7 22 -15 29 -8 7 -15 20 -15 30 0 10 -7 23 -15 30 -8 7 -15 19 -15 27 0
8 -9 26 -20 40 -11 14 -20 34 -20 43 0 10 -7 20 -15 24 -8 3 -15 14 -15 24 0
10 -5 23 -11 29 -12 12 -29 40 -51 83 -7 14 -18 29 -25 33 -7 4 -13 17 -13 27
0 10 -6 23 -12 27 -14 9 -31 34 -50 73 -7 14 -18 29 -25 33 -7 4 -13 14 -13
21 0 8 -7 16 -15 20 -8 3 -15 11 -15 18 0 7 -16 30 -35 51 -19 21 -35 40 -35
43 0 9 -45 69 -57 77 -7 4 -13 12 -13 17 0 5 -15 25 -32 45 -18 19 -37 40 -43
47 -98 125 -366 398 -471 479 -38 29 -73 57 -79 63 -26 28 -114 96 -124 96 -6
0 -14 7 -17 15 -4 8 -12 15 -20 15 -8 0 -14 4 -14 9 0 5 -21 21 -47 37 -27 15
-52 33 -56 41 -4 7 -14 13 -21 13 -8 0 -16 7 -20 15 -3 8 -15 15 -26 15 -11 0
-23 6 -26 13 -2 7 -26 24 -52 37 -26 14 -51 31 -55 38 -4 6 -19 12 -33 12 -13
0 -27 6 -30 14 -3 8 -18 19 -32 25 -15 6 -40 20 -57 31 -16 11 -37 23 -45 26
-8 3 -19 8 -25 10 -5 2 -32 17 -60 33 -27 16 -57 30 -66 30 -9 1 -22 7 -28 15
-6 7 -25 16 -42 20 -17 3 -37 13 -45 21 -9 8 -26 15 -38 15 -13 0 -29 7 -36
15 -7 8 -25 15 -40 15 -15 0 -33 7 -40 15 -7 8 -24 15 -38 15 -14 0 -33 7 -43
16 -10 9 -36 18 -58 21 -22 3 -46 12 -52 19 -6 8 -28 14 -49 14 -21 0 -43 7
-50 15 -7 8 -25 15 -40 15 -15 0 -47 9 -71 20 -24 11 -60 20 -79 20 -19 0 -46
7 -60 15 -14 8 -45 14 -70 15 -25 0 -58 7 -74 15 -16 8 -54 15 -87 15 -33 0
-76 7 -97 16 -24 10 -78 18 -152 21 -63 2 -142 11 -176 19 -76 18 -510 20
-564 3 -19 -6 -94 -15 -165 -19 -72 -4 -140 -12 -153 -19 -24 -13 -198 -32
-219 -24 -7 3 -13 9 -13 14 0 10 -33 59 -60 90 -8 9 -26 29 -41 45 -14 16 -52
63 -84 104 -70 88 -438 456 -501 502 -24 17 -44 35 -44 40 0 4 -5 8 -11 8 -7
0 -28 16 -48 35 -53 52 -61 59 -116 97 -28 19 -66 49 -85 67 -19 17 -45 34
-57 37 -13 4 -23 10 -23 14 0 8 -121 93 -169 119 -14 8 -27 18 -29 23 -2 4 -8
8 -13 8 -5 0 -18 9 -29 20 -11 11 -29 20 -40 20 -11 0 -20 5 -20 10 0 6 -10
15 -22 20 -13 6 -36 19 -53 30 -16 11 -43 27 -60 35 -16 8 -39 20 -50 27 -117
67 -341 178 -358 178 -8 0 -20 7 -27 15 -7 8 -23 15 -37 15 -13 0 -26 7 -29
15 -4 8 -16 15 -28 15 -11 0 -34 9 -51 20 -16 11 -42 20 -56 20 -15 0 -32 7
-39 15 -7 8 -23 15 -35 15 -12 0 -28 7 -35 15 -7 8 -27 15 -44 15 -17 0 -44 9
-61 20 -16 11 -41 20 -55 20 -14 0 -34 7 -44 15 -11 8 -34 15 -51 15 -17 0
-40 7 -51 15 -10 8 -34 15 -52 15 -17 0 -49 9 -69 20 -21 11 -54 20 -73 20
-20 0 -45 7 -56 15 -11 8 -41 15 -70 15 -28 0 -59 6 -70 15 -10 8 -40 15 -65
15 -26 0 -75 9 -109 20 -36 11 -90 20 -127 20 -35 0 -80 7 -100 15 -19 8 -57
15 -83 15 -26 0 -67 7 -90 15 -62 22 -915 21 -975 0z m875 -1095 c170 -16 305
-37 455 -70 173 -38 250 -58 293 -76 18 -8 40 -14 50 -14 9 0 30 -7 46 -15 15
-8 35 -15 43 -15 8 0 38 -9 66 -21 29 -12 70 -28 92 -36 22 -8 58 -24 81 -34
23 -10 44 -19 48 -19 6 0 192 -86 236 -109 70 -36 120 -64 212 -118 91 -53
142 -86 312 -203 230 -158 573 -483 763 -723 31 -39 60 -74 63 -77 25 -20 223
-310 246 -360 4 -8 13 -22 20 -30 14 -18 61 -101 104 -187 17 -33 37 -66 44
-72 14 -12 16 -11 104 33 19 9 39 16 45 16 7 1 30 9 52 20 22 11 45 19 52 20
7 0 27 6 45 14 42 17 182 58 318 91 83 21 230 44 345 56 107 10 472 13 588 4
196 -15 557 -93 695 -151 18 -8 38 -14 45 -14 7 -1 30 -9 52 -20 22 -11 45
-19 52 -20 6 0 24 -6 40 -14 15 -8 84 -42 153 -75 225 -109 319 -168 540 -336
140 -106 469 -435 514 -514 5 -8 18 -25 28 -36 10 -10 40 -51 66 -90 26 -38
53 -76 59 -83 7 -7 13 -17 13 -22 0 -5 13 -28 29 -52 48 -72 142 -250 189
-358 11 -25 27 -61 36 -82 9 -20 16 -41 16 -46 0 -6 6 -23 14 -39 24 -49 74
-212 106 -343 6 -25 15 -65 21 -90 13 -52 36 -208 49 -325 5 -44 9 -172 9
-285 0 -113 -4 -241 -9 -285 -13 -117 -36 -273 -49 -325 -6 -25 -15 -65 -21
-90 -32 -131 -82 -294 -106 -343 -8 -16 -14 -33 -14 -39 0 -5 -7 -26 -16 -46
-9 -21 -25 -57 -36 -82 -20 -45 -92 -192 -108 -220 -5 -8 -28 -48 -52 -89 -91
-156 -103 -175 -205 -308 -90 -119 -102 -132 -273 -304 -197 -197 -409 -362
-610 -472 -25 -14 -65 -37 -90 -51 -25 -14 -58 -32 -75 -39 -16 -8 -57 -26
-90 -42 -103 -48 -137 -61 -275 -110 -19 -7 -51 -18 -70 -25 -19 -6 -54 -16
-78 -21 -23 -5 -50 -13 -60 -18 -9 -5 -37 -12 -62 -16 -25 -3 -67 -13 -95 -20
-61 -17 -182 -35 -295 -46 -116 -10 -9187 -10 -9275 1 -97 11 -225 36 -287 56
-129 41 -241 80 -266 93 -9 6 -39 20 -67 33 -156 72 -368 215 -495 334 -25 24
-56 53 -70 66 -29 27 -143 158 -180 207 -14 18 -29 38 -35 45 -22 25 -55 76
-55 82 0 4 -6 15 -14 23 -24 28 -85 143 -143 271 -9 19 -19 42 -24 51 -4 9
-19 52 -33 95 -15 44 -33 99 -41 124 -8 25 -15 55 -15 66 0 12 -6 39 -14 61
-7 21 -16 71 -20 110 -3 40 -11 95 -16 124 -13 67 -13 301 0 369 6 30 13 83
16 119 4 36 13 84 20 106 8 22 14 51 14 64 0 26 32 133 56 189 8 18 14 39 14
47 0 7 6 26 14 42 8 15 40 82 72 148 32 66 60 122 63 125 4 3 12 16 19 30 13
27 54 86 136 195 74 98 204 234 284 297 37 29 76 61 87 71 20 19 174 123 210
143 138 74 183 96 260 126 157 61 209 77 340 104 138 30 161 33 232 33 46 1
75 6 80 14 4 6 11 53 15 102 14 198 28 347 34 356 3 6 12 51 19 102 18 125 42
242 53 264 5 10 12 39 15 65 4 26 11 56 16 65 5 10 14 36 20 58 21 81 58 198
80 250 5 11 18 47 31 80 23 64 35 92 69 166 12 25 21 51 21 56 0 6 7 16 15 23
8 7 15 20 15 30 0 10 7 23 15 30 8 7 15 21 15 31 0 9 7 24 15 32 7 8 17 26 20
40 4 15 13 31 21 38 8 6 14 15 14 19 0 8 66 123 100 175 8 13 30 47 48 76 115
188 316 435 521 640 177 176 277 262 456 393 50 36 95 69 100 73 27 22 193
127 240 153 11 6 38 22 60 35 38 23 328 168 370 185 21 9 60 26 139 59 27 12
54 21 60 21 6 0 23 6 38 14 15 8 42 17 60 21 18 4 38 11 43 16 6 4 29 13 50
18 22 6 74 20 115 32 95 26 169 44 245 59 33 6 74 16 92 21 17 5 71 14 120 19
48 6 99 13 113 16 85 22 717 31 900 14z"/>
<path d="M7670 8460 c-103 -11 -198 -33 -310 -70 -115 -39 -165 -64 -196 -97
-22 -24 -24 -35 -24 -123 0 -83 3 -99 19 -115 22 -19 12 -21 202 48 159 58
234 71 404 72 146 0 166 -2 229 -25 120 -43 187 -123 215 -257 6 -29 14 -108
17 -175 9 -156 7 -158 -99 -135 -150 34 -227 42 -387 42 -138 -1 -179 -4 -248
-23 -153 -40 -245 -93 -337 -194 -246 -272 -168 -744 148 -894 153 -72 374
-83 552 -27 121 38 272 133 333 209 39 49 65 45 93 -13 51 -106 129 -193 171
-193 42 0 200 106 222 149 13 24 11 33 -27 111 -70 146 -69 141 -77 695 -7
457 -9 506 -27 571 -85 300 -287 436 -666 448 -73 3 -166 1 -207 -4z m445
-1105 c117 -25 115 -23 115 -109 0 -92 -22 -212 -48 -263 -53 -102 -162 -186
-295 -228 -108 -35 -263 -37 -334 -5 -88 39 -143 108 -163 205 -25 123 12 259
89 327 42 37 128 77 191 89 71 13 354 3 445 -16z"/>
<path d="M12160 8464 c-81 -15 -165 -42 -240 -77 -68 -32 -101 -55 -161 -116
-117 -117 -153 -201 -153 -356 -1 -111 15 -172 66 -259 43 -72 78 -112 139
-158 94 -70 143 -90 474 -192 215 -67 277 -99 330 -175 28 -39 30 -50 30 -126
0 -77 -2 -86 -31 -127 -39 -54 -107 -101 -182 -125 -46 -15 -90 -18 -232 -18
-200 0 -268 12 -434 77 -131 52 -147 55 -170 29 -15 -17 -17 -34 -14 -115 3
-91 4 -97 33 -126 77 -77 400 -160 622 -160 90 0 228 22 318 50 204 63 338
176 407 342 27 63 31 89 35 188 4 99 2 124 -17 179 -42 125 -120 216 -241 284
-62 35 -116 54 -417 151 -179 57 -245 89 -303 146 -53 53 -74 115 -63 189 22
155 179 232 446 218 137 -7 214 -23 335 -71 110 -43 127 -44 149 -11 22 33 16
170 -9 205 -39 56 -130 96 -303 135 -67 15 -361 29 -414 19z"/>
<path d="M8812 8404 c-12 -8 -22 -25 -22 -38 0 -12 30 -118 66 -236 36 -118
72 -235 79 -260 14 -47 46 -151 70 -232 8 -27 22 -70 30 -98 8 -27 22 -71 30
-97 27 -89 57 -188 70 -233 142 -479 205 -666 230 -687 24 -22 35 -23 167 -23
205 0 197 -9 262 270 20 85 45 191 56 235 56 233 102 422 125 520 14 61 39
164 55 230 16 66 32 139 35 162 4 24 11 46 16 49 17 10 38 -16 45 -55 8 -48
49 -223 154 -656 61 -251 78 -323 125 -520 46 -192 42 -179 70 -209 24 -26 25
-26 175 -26 l152 0 27 28 c20 19 38 62 65 147 20 66 43 138 50 160 8 22 21 63
29 90 27 90 98 319 107 345 5 14 27 86 50 160 23 74 45 146 50 160 5 14 27 86
50 160 23 74 45 146 50 160 5 14 27 86 50 160 23 74 45 145 50 157 5 12 16 50
25 84 16 61 16 62 -6 85 -21 22 -30 24 -133 24 -61 0 -128 -5 -148 -11 -58
-16 -56 -8 -174 -469 -25 -96 -58 -224 -74 -285 -73 -278 -95 -362 -136 -525
-24 -96 -44 -182 -44 -191 0 -9 -9 -24 -19 -33 -19 -17 -20 -17 -30 3 -6 11
-11 27 -11 35 0 14 -36 170 -80 351 -5 22 -26 108 -45 190 -19 83 -51 215 -70
295 -18 80 -43 186 -55 235 -53 228 -82 340 -91 357 -18 34 -71 48 -181 48
-120 0 -172 -12 -193 -44 -15 -23 -46 -141 -129 -496 -13 -58 -38 -163 -55
-235 -17 -71 -47 -197 -66 -280 -20 -82 -42 -179 -51 -215 -18 -76 -41 -174
-49 -212 -6 -32 -31 -37 -39 -10 -4 10 -40 151 -80 313 -41 162 -111 438 -156
614 -45 176 -91 356 -102 400 -40 156 -53 165 -230 165 -96 0 -129 -4 -146
-16z"/>
</g>
</svg>
