<?xml version="1.0" standalone="no"?>
<!DOCTYPE svg PUBLIC "-//W3C//DTD SVG 20010904//EN"
 "http://www.w3.org/TR/2001/REC-SVG-20010904/DTD/svg10.dtd">
<svg version="1.0" xmlns="http://www.w3.org/2000/svg"
 width="225.000000pt" height="225.000000pt" viewBox="0 0 225.000000 225.000000"
 preserveAspectRatio="xMidYMid meet">
<metadata>
Created by potrace 1.16, written by Peter Selinger 2001-2019
</metadata>
<g transform="translate(0.000000,225.000000) scale(0.100000,-0.100000)"
fill="#000000" stroke="none">
<path d="M1070 2086 c-14 -9 -33 -15 -43 -16 -11 0 -15 -5 -11 -11 4 -8 0 -9
-15 -4 -11 3 -21 3 -21 -2 0 -4 -29 -21 -65 -38 -43 -19 -64 -34 -60 -43 3
-10 -1 -11 -16 -7 -15 5 -19 4 -15 -4 4 -6 0 -11 -9 -11 -25 0 -95 -39 -92
-52 1 -6 -11 -16 -28 -21 -54 -17 -95 -40 -88 -50 4 -6 1 -7 -6 -2 -17 10
-103 -35 -97 -51 3 -7 -3 -10 -17 -8 -12 2 -16 1 -9 -2 10 -4 4 -12 -17 -25
-32 -19 -59 -27 -31 -9 9 6 10 10 3 10 -6 0 -18 -6 -25 -13 -7 -7 -26 -20 -41
-30 -15 -10 -25 -23 -21 -29 4 -6 3 -8 -4 -4 -5 3 -20 -9 -31 -28 -21 -33 -21
-44 -21 -497 0 -395 2 -468 15 -486 19 -27 318 -223 340 -223 10 0 143 -89
150 -99 3 -6 10 -9 15 -6 5 3 26 -5 47 -18 21 -13 65 -39 98 -57 33 -18 74
-41 92 -51 17 -10 60 -25 95 -34 56 -14 69 -14 105 -1 49 17 180 85 204 106
10 8 40 26 66 39 26 14 59 33 73 42 44 29 114 70 133 76 9 3 17 9 17 13 0 5
21 18 48 31 80 38 166 99 191 135 13 19 27 53 32 77 4 23 8 201 9 395 0 337
-6 429 -31 456 -5 6 -9 22 -9 37 0 39 -39 80 -122 129 -40 24 -76 47 -79 53
-3 5 -9 8 -13 8 -6 -2 -75 36 -126 68 -14 8 -38 23 -55 32 -16 9 -52 30 -80
47 -290 177 -376 212 -435 178z m-150 -86 c-8 -5 -19 -10 -25 -10 -5 0 -3 5 5
10 8 5 20 10 25 10 6 0 3 -5 -5 -10z m-140 -80 c-8 -5 -19 -10 -25 -10 -5 0
-3 5 5 10 8 5 20 10 25 10 6 0 3 -5 -5 -10z m-236 -134 c-10 -8 -21 -12 -24
-10 -5 6 21 24 34 24 6 0 1 -6 -10 -14z m223 -168 c-3 -8 -6 -5 -6 6 -1 11 2
17 5 13 3 -3 4 -12 1 -19z m-16 -59 c-5 -13 -10 -19 -10 -12 -1 15 10 45 15
40 3 -2 0 -15 -5 -28z m-81 -14 c-18 -18 -38 -33 -44 -32 -6 1 -10 -3 -9 -9 3
-15 -35 -49 -44 -40 -8 8 67 87 77 81 4 -3 15 4 25 15 10 11 21 20 24 20 2 0
-10 -16 -29 -35z m211 -99 c-1 -3 -3 -5 -5 -3 -2 1 -14 -7 -27 -18 l-24 -20
24 28 c22 24 34 29 32 13z m-334 -12 c-3 -3 -12 -4 -19 -1 -8 3 -5 6 6 6 11 1
17 -2 13 -5z m273 -44 c0 -5 -2 -10 -4 -10 -3 0 -8 5 -11 10 -3 6 -1 10 4 10
6 0 11 -4 11 -10z m-263 -15 c0 -8 -4 -12 -9 -9 -4 3 -8 9 -8 15 0 5 4 9 8 9
5 0 9 -7 9 -15z m197 7 c3 -5 -1 -9 -9 -9 -8 0 -12 4 -9 9 3 4 7 8 9 8 2 0 6
-4 9 -8z m-164 -126 c0 -3 -4 -8 -10 -11 -5 -3 -10 -1 -10 4 0 6 5 11 10 11 6
0 10 -2 10 -4z m25 -46 c-3 -5 -12 -10 -18 -10 -7 0 -6 4 3 10 19 12 23 12 15
0z m119 -116 c5 -14 4 -15 -9 -4 -17 14 -19 20 -6 20 5 0 12 -7 15 -16z m61
-99 c-5 -3 -32 -6 -60 -7 -35 -2 -50 -7 -50 -17 0 -8 -16 -23 -35 -34 l-35
-19 19 20 c10 12 23 20 29 19 6 -1 11 3 12 8 1 27 19 35 73 34 31 0 53 -2 47
-4z m-110 -115 c3 -5 -1 -10 -10 -10 -9 0 -13 5 -10 10 3 6 8 10 10 10 2 0 7
-4 10 -10z m245 -29 c0 -4 -11 -6 -25 -3 -14 2 -25 6 -25 8 0 2 11 4 25 4 14
0 25 -4 25 -9z m-153 -23 c-3 -8 -6 -5 -6 6 -1 11 2 17 5 13 3 -3 4 -12 1 -19z
m-19 -13 c-3 -3 -9 2 -12 12 -6 14 -5 15 5 6 7 -7 10 -15 7 -18z m133 -18
c-10 -9 -11 -8 -5 6 3 10 9 15 12 12 3 -3 0 -11 -7 -18z m-85 -19 c5 -7 3 -8
-6 -3 -10 6 -12 4 -6 -11 5 -14 4 -16 -5 -7 -6 6 -8 16 -5 22 9 14 13 14 22
-1z m330 -178 c0 -12 -4 -16 -9 -11 -5 5 -6 14 -3 20 10 15 12 14 12 -9z"/>
<path d="M589 1483 c-13 -16 -12 -17 4 -4 9 7 17 15 17 17 0 8 -8 3 -21 -13z"/>
<path d="M690 1890 c-9 -6 -10 -10 -3 -10 6 0 15 5 18 10 8 12 4 12 -15 0z"/>
</g>
</svg>
