<?xml version="1.0" encoding="UTF-8"?>
<svg width="558px" height="487px" viewBox="0 0 558 487" version="1.1" xmlns="http://www.w3.org/2000/svg" xmlns:xlink="http://www.w3.org/1999/xlink">
    <!-- Generator: Sketch 51.3 (57544) - http://www.bohemiancoding.com/sketch -->
    <title>Data Analytics Copy</title>
    <desc>Created with Sketch.</desc>
    <defs>
        <linearGradient x1="103.945293%" y1="46.0465527%" x2="66.2170537%" y2="55.5395327%" id="linearGradient-1">
            <stop stop-color="#091D3C" stop-opacity="0" offset="0%"></stop>
            <stop stop-color="#05142B" offset="100%"></stop>
        </linearGradient>
        <linearGradient x1="0%" y1="45.2818917%" x2="100%" y2="50%" id="linearGradient-2">
            <stop stop-color="#CBDFF1" offset="0%"></stop>
            <stop stop-color="#95B9EA" offset="100%"></stop>
        </linearGradient>
        <linearGradient x1="42.6584283%" y1="26.3378009%" x2="51.9051816%" y2="84.870552%" id="linearGradient-3">
            <stop stop-color="#96BAEA" offset="0%"></stop>
            <stop stop-color="#FFFFFF" stop-opacity="0" offset="100%"></stop>
        </linearGradient>
        <linearGradient x1="40.5922471%" y1="28.547876%" x2="50%" y2="100%" id="linearGradient-4">
            <stop stop-color="#C3CEE0" offset="0%"></stop>
            <stop stop-color="#DEE7F6" stop-opacity="0" offset="100%"></stop>
        </linearGradient>
        <polygon id="path-5" points="0 0.477882353 52.4699833 0.477882353 52.4699833 85.7636863 0 85.7636863"></polygon>
        <polygon id="path-7" points="0 0.0478117647 52.4926333 0.0478117647 52.4926333 27.0705569 0 27.0705569"></polygon>
        <polygon id="path-9" points="0.707666667 0.0923294118 51.9721667 0.0923294118 51.9721667 60.7647059 0.707666667 60.7647059"></polygon>
        <polygon id="path-11" points="0.69005 0.392203922 51.9721667 0.392203922 51.9721667 30.4707922 0.69005 30.4707922"></polygon>
        <polygon id="path-13" points="0.707666667 0.412407843 25.8743333 0.412407843 25.8743333 67.7647059 0.707666667 67.7647059"></polygon>
        <polygon id="path-15" points="0.33931449 0.821831472 74.0638889 0.821831472 74.0638889 31.4854254 0.33931449 31.4854254"></polygon>
        <polygon id="path-17" points="0 0.103983136 39.9816667 0.103983136 39.9816667 83.4580508 0 83.4580508"></polygon>
        <polygon id="path-19" points="7.60947799 6.85359507 27.0539224 6.85359507 27.0539224 19.3705584 7.60947799 19.3705584"></polygon>
        <polygon id="path-21" points="8.34166667 11.8873568 27.7861111 11.8873568 27.7861111 19.3705584 8.34166667 19.3705584"></polygon>
        <polygon id="path-23" points="1.13276231 13.1041827 20.5772068 13.1041827 20.5772068 19.3705584 1.13276231 19.3705584"></polygon>
        <polygon id="path-25" points="1.13276231 14.3051574 20.5772068 14.3051574 20.5772068 19.3705584 1.13276231 19.3705584"></polygon>
        <polygon id="path-27" points="3.10031133 3.58564787 22.5447558 3.58564787 22.5447558 19.3705584 3.10031133 19.3705584"></polygon>
        <polygon id="path-29" points="3.95175926 7.40313217 22.7305556 7.40313217 22.7305556 19.3705584 3.95175926 19.3705584"></polygon>
        <polygon id="path-31" points="16.2066524 8.8268646 35.6510968 8.8268646 35.6510968 19.3705584 16.2066524 19.3705584"></polygon>
        <polygon id="path-33" points="16.2164042 9.1099736 35.6608486 9.1099736 35.6608486 19.3705584 16.2164042 19.3705584"></polygon>
        <polygon id="path-35" points="64.0017273 153.235503 86.9242727 139.957746 109.708545 153.173817 86.9242727 166.374467"></polygon>
        <linearGradient x1="-74.283116%" y1="-56.7082078%" x2="106.934175%" y2="98.7107531%" id="linearGradient-37">
            <stop stop-color="#E8E8F9" offset="0%"></stop>
            <stop stop-color="#9A9AE8" offset="100%"></stop>
        </linearGradient>
        <polygon id="path-38" points="103.733364 177.96397 126.655909 164.670792 149.455545 177.886863 126.655909 191.102934"></polygon>
        <polygon id="path-40" points="145.534 199.759827 168.441182 212.914213 191.240818 199.698142 168.441182 186.482071"></polygon>
        <polygon id="path-42" points="46.5882727 39.6035736 47.2335455 40.1278985 74.9341818 5.05981726 85.9806364 87.363401 114.372636 59.7592386 126.494545 129.664081 155.885182 106.269939 167.146727 167.04536 167.991727 166.891147 156.453636 104.743228 127.078364 128.106528 114.925727 58.0628934 86.5951818 85.6053706 75.5026364 2.97793909"></polygon>
        <path d="M156.785273,108.96269 C158.751818,108.96269 160.349636,107.374294 160.349636,105.384944 C160.349636,103.395594 158.751818,101.807198 156.785273,101.807198 C154.803364,101.807198 153.205545,103.395594 153.205545,105.384944 C153.205545,107.374294 154.803364,108.96269 156.785273,108.96269 Z" id="path-44"></path>
        <path d="M126.968273,131.89734 C128.274182,131.89734 129.349636,130.833269 129.349636,129.507036 C129.349636,128.196223 128.274182,127.132152 126.968273,127.132152 C125.647,127.132152 124.586909,128.196223 124.586909,129.507036 C124.586909,130.833269 125.647,131.89734 126.968273,131.89734 Z" id="path-46"></path>
        <path d="M167.667818,170.14536 C168.973727,170.14536 170.049182,169.081289 170.049182,167.755056 C170.049182,166.444244 168.973727,165.364751 167.667818,165.364751 C166.331182,165.364751 165.286455,166.444244 165.286455,167.755056 C165.286455,169.081289 166.331182,170.14536 167.667818,170.14536 Z" id="path-48"></path>
        <path d="M115.21,62.8547411 C117.161182,62.8547411 118.759,61.2663452 118.759,59.2769949 C118.759,57.303066 117.161182,55.6992487 115.21,55.6992487 C113.228091,55.6992487 111.630273,57.303066 111.630273,59.2769949 C111.630273,61.2663452 113.228091,62.8547411 115.21,62.8547411 Z" id="path-50"></path>
        <path d="M86.5606364,88.7680914 C87.8665455,88.7680914 88.942,87.688599 88.942,86.3777868 C88.942,85.0515533 87.8665455,83.9874822 86.5606364,83.9874822 C85.2393636,83.9874822 84.1792727,85.0515533 84.1792727,86.3777868 C84.1792727,87.688599 85.2393636,88.7680914 86.5606364,88.7680914 Z" id="path-52"></path>
        <path d="M75.5141818,0.43342132 C73.5476364,0.43342132 71.9344545,2.03723858 71.9344545,4.01116751 C71.9344545,6.00051777 73.5476364,7.60433503 75.5141818,7.60433503 C77.4653636,7.60433503 79.0785455,6.00051777 79.0785455,4.01116751 C79.0785455,2.03723858 77.4653636,0.43342132 75.5141818,0.43342132 Z" id="path-54"></path>
        <path d="M46.8955455,42.413401 C48.2321818,42.413401 49.2922727,41.3339086 49.2922727,40.0230964 C49.2922727,38.7122843 48.2321818,37.6482132 46.8955455,37.6482132 C45.5896364,37.6482132 44.5295455,38.7122843 44.5295455,40.0230964 C44.5295455,41.3339086 45.5896364,42.413401 46.8955455,42.413401 Z" id="path-56"></path>
        <linearGradient x1="69.9779429%" y1="18.3541219%" x2="33.3472309%" y2="63.4928478%" id="linearGradient-58">
            <stop stop-color="#091D3C" offset="0%"></stop>
            <stop stop-color="#4577BB" offset="100%"></stop>
        </linearGradient>
        <linearGradient x1="69.9779429%" y1="18.3541219%" x2="33.3472309%" y2="63.4928478%" id="linearGradient-59">
            <stop stop-color="#091D3C" offset="0%"></stop>
            <stop stop-color="#F7893F" offset="100%"></stop>
        </linearGradient>
        <linearGradient x1="50%" y1="69.5324808%" x2="50%" y2="3.061617e-15%" id="linearGradient-60">
            <stop stop-color="#F5B58B" stop-opacity="0" offset="0%"></stop>
            <stop stop-color="#F7893F" offset="100%"></stop>
        </linearGradient>
        <linearGradient x1="50%" y1="69.5324808%" x2="50%" y2="3.061617e-15%" id="linearGradient-61">
            <stop stop-color="#5184CA" stop-opacity="0" offset="0%"></stop>
            <stop stop-color="#5184CA" offset="100%"></stop>
        </linearGradient>
        <linearGradient x1="50%" y1="69.5324808%" x2="50%" y2="3.061617e-15%" id="linearGradient-62">
            <stop stop-color="#F7893F" stop-opacity="0" offset="0%"></stop>
            <stop stop-color="#F7893F" offset="100%"></stop>
        </linearGradient>
        <linearGradient x1="34.3808453%" y1="0%" x2="87.9985537%" y2="84.4479256%" id="linearGradient-63">
            <stop stop-color="#FFFFFF" offset="0%"></stop>
            <stop stop-color="#FFFFFF" stop-opacity="0" offset="100%"></stop>
        </linearGradient>
        <linearGradient x1="19.471406%" y1="16.0655008%" x2="50%" y2="100%" id="linearGradient-64">
            <stop stop-color="#96BAEA" offset="0%"></stop>
            <stop stop-color="#FFFFFF" offset="100%"></stop>
        </linearGradient>
        <linearGradient x1="12.2253999%" y1="11.6888765%" x2="50%" y2="100%" id="linearGradient-65">
            <stop stop-color="#96BAEA" offset="0%"></stop>
            <stop stop-color="#FFFFFF" offset="100%"></stop>
        </linearGradient>
        <linearGradient x1="50%" y1="0%" x2="50%" y2="100%" id="linearGradient-66">
            <stop stop-color="#ACD3EF" offset="0%"></stop>
            <stop stop-color="#74A8DA" offset="100%"></stop>
        </linearGradient>
        <linearGradient x1="73.9217881%" y1="12.5459694%" x2="50%" y2="65.0729574%" id="linearGradient-67">
            <stop stop-color="#7BAFDF" offset="0%"></stop>
            <stop stop-color="#4577BB" offset="100%"></stop>
        </linearGradient>
        <linearGradient x1="61.1678933%" y1="18.360086%" x2="54.7416228%" y2="73.9724865%" id="linearGradient-68">
            <stop stop-color="#7BAFDF" offset="0%"></stop>
            <stop stop-color="#4577BB" offset="100%"></stop>
        </linearGradient>
    </defs>
    <g id="Data-Analytics-Copy" stroke="none" stroke-width="1" fill="none" fill-rule="evenodd">
        <g id="Group-23-Copy" transform="translate(2.000000, 32.000000)">
            <g id="Group-22">
                <g id="Group-208">
                    <g id="Group-111-Copy" transform="translate(0.000000, 109.000000)" fill-rule="nonzero">
                        <path d="M20.4854251,137.940005 L254.205549,8.82532901 C271.516279,-0.737686999 292.525766,-0.737686999 309.836496,8.82532901 L543.811621,138.080877 C554.239627,143.84165 558.023167,156.965248 552.262394,167.393254 C550.326364,170.897807 547.453184,173.79439 543.964452,175.758787 L310.932786,306.971691 C294.340539,316.31427 274.089052,316.378792 257.437612,307.142129 L20.4525796,175.684973 C10.0346154,169.90606 6.27392155,156.775897 12.0528348,146.357933 C14.0176221,142.815903 16.939981,139.898625 20.4854251,137.940005 Z" id="Path-6-Copy" fill="url(#linearGradient-1)"></path>
                        <path d="M0,150.257796 L3.55271368e-15,163.937885 C4.25500742e-15,169.672549 3.03581721,174.978691 7.97953743,177.884891 L221.554764,303.43655 C238.292671,313.276043 259.027764,313.358446 275.843347,303.652297 L492.328814,178.694382 C496.778973,176.125699 499.520501,171.377805 499.520501,166.239512 L499.520501,147.559411 L0,150.257796 Z" id="Path-7" fill="url(#linearGradient-2)"></path>
                        <path d="M11.7741178,128.272268 L221.944706,8.49163941 C239.657621,-1.60332201 261.390734,-1.56828255 279.071004,8.58374196 L487.574503,128.306606 C497.905897,134.2389 501.472072,147.423224 495.539778,157.754618 C493.65528,161.036569 490.940502,163.764973 487.668028,165.66588 L277.970161,287.474651 C260.998092,297.333344 240.050649,297.367314 223.046694,287.563718 L11.6807708,165.701123 C1.35985405,159.75062 -2.18306581,146.560027 3.76743784,136.239111 C5.68135717,132.919492 8.44499403,130.169606 11.7741178,128.272268 Z" id="Path-6" stroke="#FFFFFF" stroke-width="3.59519556" fill="#F5F6FD"></path>
                    </g>
                    <g id="Group-74" opacity="0.547321429" transform="translate(254.000000, 247.000000)" fill="#48658D" fill-rule="nonzero">
                        <ellipse id="Oval-12" opacity="0.255691964" cx="75.1180758" cy="72.9826863" rx="3.37609329" ry="2.10932619"></ellipse>
                        <ellipse id="Oval-12-Copy" opacity="0.255691964" cx="47.2653061" cy="57.7955377" rx="3.37609329" ry="2.10932619"></ellipse>
                        <ellipse id="Oval-12-Copy-2" opacity="0.255691964" cx="26.164723" cy="44.2958501" rx="3.37609329" ry="2.10932619"></ellipse>
                        <ellipse id="Oval-12-Copy-3" opacity="0.255691964" cx="3.37609329" cy="29.952432" rx="3.37609329" ry="2.10932619"></ellipse>
                        <ellipse id="Oval-12" opacity="0.255691964" cx="122.383382" cy="45.1395805" rx="3.37609329" ry="2.10932619"></ellipse>
                        <ellipse id="Oval-12-Copy" opacity="0.255691964" cx="94.5306122" cy="29.952432" rx="3.37609329" ry="2.10932619"></ellipse>
                        <ellipse id="Oval-12-Copy-2" opacity="0.255691964" cx="73.4300292" cy="16.4527443" rx="3.37609329" ry="2.10932619"></ellipse>
                        <ellipse id="Oval-12-Copy-3" opacity="0.255691964" cx="50.6413994" cy="2.10932619" rx="3.37609329" ry="2.10932619"></ellipse>
                        <ellipse id="Oval-12" opacity="0.255691964" cx="97.0626822" cy="56.9518072" rx="3.37609329" ry="2.10932619"></ellipse>
                        <ellipse id="Oval-12-Copy" opacity="0.255691964" cx="69.2099125" cy="41.7646586" rx="3.37609329" ry="2.10932619"></ellipse>
                        <ellipse id="Oval-12-Copy-2" opacity="0.255691964" cx="48.1093294" cy="28.264971" rx="3.37609329" ry="2.10932619"></ellipse>
                        <ellipse id="Oval-12-Copy-3" opacity="0.255691964" cx="25.3206997" cy="13.9215529" rx="3.37609329" ry="2.10932619"></ellipse>
                    </g>
                    <path d="M214.5,179.5 C225.5,182.166667 238.333333,183.5 253,183.5 C267.666667,183.5 276.821018,179.333333 280.463054,171 L300,181.5 L248,204.5 L214.5,179.5 Z" id="Path-53-Copy-4" fill="url(#linearGradient-3)" fill-rule="nonzero" opacity="0.517075893"></path>
                    <g id="Group-206" transform="translate(213.000000, 125.000000)" fill-rule="nonzero">
                        <path d="M34.5,59 C53.5538239,59 69,53.1157424 69,45.8571429 C69,41.0180765 69,30.0656955 69,13 L0,13 C0,32.1262476 0,43.0786285 0,45.8571429 C0,53.1157424 15.4461761,59 34.5,59 Z" id="Oval-41-Copy" fill="url(#linearGradient-2)" opacity="0.529631696"></path>
                        <ellipse id="Oval-41" stroke="#FFFFFF" fill="#E7E9F5" cx="34.5" cy="13" rx="34.5" ry="13"></ellipse>
                    </g>
                    <ellipse id="Oval-44" stroke="#BFCADE" fill="#DEE7F6" fill-rule="nonzero" opacity="0.320814732" cx="150" cy="253" rx="92" ry="49"></ellipse>
                    <g id="Group-204" transform="translate(62.000000, 107.000000)">
                        <polygon id="Path-53-Copy-2" fill="url(#linearGradient-4)" fill-rule="nonzero" opacity="0.517075893" points="18 170 106 127.5 165 150 68 193.5"></polygon>
                        <g id="Group-40" transform="translate(0.710084, 17.000000)">
                            <path d="M89.4826,107.628563 C90.1117667,107.982132 90.7157667,108.360955 91.2946,108.714524 C103.122933,116.290995 107.275433,126.41821 103.7521,135.737269 L52.4876,129.069975 L44.4342667,98.9913867 C60.3647667,97.627622 77.2012667,100.506681 89.4826,107.628563" id="Fill-1" fill="#E6E6E6"></path>
                            <polygon id="Fill-3" fill="#0E173A" points="104.955067 129.059873 104.955067 78.7521082 52.4825667 78.9288925 52.4825667 129.059873"></polygon>
                            <polygon id="Fill-5" fill="#B3B3B3" points="52.4825667 78.9213161 44.4544 48.8427278 44.4544 98.9737082 52.4825667 129.052296"></polygon>
                            <path d="M89.4826,57.4773788 C90.1117667,57.8309475 90.7157667,58.209771 91.2946,58.5885945 C103.122933,66.1398102 107.275433,76.2670259 103.7521,85.6113396 L52.4876,78.9187906 L44.4342667,48.8402024 C60.3647667,47.4764376 77.2012667,50.3554965 89.4826,57.4773788" id="Fill-7" fill="#4D5B9A"></path>
                            <polygon id="Fill-9" fill="#25326A" points="103.749583 85.6037631 103.749583 135.734744 52.4850833 129.067449 52.4850833 78.9112141"></polygon>
                            <path d="M52.4825667,129.059873 L1.1929,122.367324 C3.25656667,116.912265 7.93756667,111.73501 15.2610667,107.492187 C23.4654,102.744265 33.7334,99.8904612 44.4544,98.9812847 L52.4825667,129.059873 Z" id="Fill-11" fill="#F2F2F2"></path>
                            <path d="M52.4825667,30.0884376 L1.1929,23.3958886 C3.25656667,17.9408298 7.93756667,12.73832 15.2610667,8.52075137 C23.4654,3.7475749 33.7334,0.919025882 44.4544,0.00984941176 L52.4825667,30.0884376 Z" id="Fill-15" fill="#F7567D"></path>
                            <polygon id="Fill-17" fill="#DF1243" points="52.4825667 129.059873 52.4825667 30.0859122 1.1929 23.3933631 1.1929 122.367324"></polygon>
                            <g id="Group-30" transform="translate(0.000000, 63.621332)">
                                <mask id="mask-6" fill="white">
                                    <use xlink:href="#path-5"></use>
                                </mask>
                                <g id="Clip-29"></g>
                                <path d="M13.6629833,60.3825098 L13.6629833,20.8080784 L-0.00251666667,0.477882353 L-0.00251666667,65.3324706 L0.02265,65.3577255 C0.0478166667,72.6563922 4.60298333,79.9803137 13.6629833,85.7636863 L52.4699833,65.4334902 L13.6629833,60.3825098 Z" id="Fill-28" fill="#325E99" mask="url(#mask-6)"></path>
                            </g>
                            <g id="Group-33" transform="translate(0.000000, 57.366430)">
                                <mask id="mask-8" fill="white">
                                    <use xlink:href="#path-7"></use>
                                </mask>
                                <g id="Clip-32"></g>
                                <path d="M1.20296667,0.0478117647 L52.4926333,6.74036078 L13.6604667,27.0705569 C1.83213333,19.5193412 -2.32036667,9.39212549 1.20296667,0.0478117647" id="Fill-31" fill="#6F9EDD" mask="url(#mask-8)"></path>
                            </g>
                            <polygon id="Fill-34" fill="#4577BB" points="13.6629833 84.4319357 13.6629833 149.387544 52.4699833 129.057347 52.4699833 64.1017396"></polygon>
                            <path d="M54.94135,142.700045 L52.4750167,135.451889 L40.6215167,139.719967 L13.6680167,134.113379 L13.6680167,149.392595 C14.24685,149.771418 14.85085,150.124987 15.4800167,150.50381 C27.76135,157.625693 44.59785,160.504751 60.5031833,159.140987 L60.5031833,143.861771 L54.94135,142.700045 Z" id="Fill-36" fill="#F7893F"></path>
                            <path d="M52.4825667,113.783183 L60.5107333,143.861771 C44.6054,145.225536 27.7689,142.346477 15.4875667,135.224595 C14.8584,134.845771 14.2544,134.492202 13.6755667,134.113379 L52.4825667,113.783183 Z" id="Fill-38" fill="#F3AA78"></path>
                        </g>
                        <g id="Group-202" transform="translate(8.710084, 0.000000)">
                            <g id="Group-59" transform="translate(107.000000, 115.000000)">
                                <g id="Group-21" transform="translate(0.500000, 7.131136)">
                                    <mask id="mask-10" fill="white">
                                        <use xlink:href="#path-9"></use>
                                    </mask>
                                    <g id="Clip-20"></g>
                                    <path d="M8.73583333,23.4783686 L8.73583333,31.7367216 L0.707666667,30.6760157 L8.73583333,60.7798588 C19.4316667,59.8454275 29.7248333,57.0168784 37.9291667,52.2689569 C45.2526667,48.0261333 49.9085,42.8236235 51.9721667,37.3685647 L51.9721667,0.0923294118 L8.73583333,23.4783686 Z" id="Fill-19" fill="#F8CB5A" mask="url(#mask-10)"></path>
                                </g>
                                <g id="Group-24" transform="translate(0.500000, 0.131136)">
                                    <mask id="mask-12" fill="white">
                                        <use xlink:href="#path-11"></use>
                                    </mask>
                                    <g id="Clip-23"></g>
                                    <path d="M51.9797167,7.08475294 C49.91605,12.5398118 45.2602167,17.7170667 37.9367167,21.9598902 C29.7323833,26.7330667 19.4392167,29.5616157 8.74338333,30.4707922 L0.69005,0.392203922 L51.9797167,7.08475294 Z" id="Fill-22" fill="#E4B848" mask="url(#mask-12)"></path>
                                </g>
                                <g id="Group-27" transform="translate(0.500000, 0.131136)">
                                    <mask id="mask-14" fill="white">
                                        <use xlink:href="#path-13"></use>
                                    </mask>
                                    <g id="Clip-26"></g>
                                    <polygon id="Fill-25" fill="#FDE096" mask="url(#mask-14)" points="8.73583333 67.7672314 8.73583333 30.4657412 0.707666667 0.412407843 0.707666667 37.6886431"></polygon>
                                </g>
                            </g>
                            <g id="Group-70-Copy">
                                <g id="Group-3" transform="translate(84.777778, 48.478731)">
                                    <mask id="mask-16" fill="white">
                                        <use xlink:href="#path-15"></use>
                                    </mask>
                                    <g id="Clip-2"></g>
                                    <path d="M9.42083333,0.821831472 L62.9708333,9.86788223 C62.9708333,9.86788223 73.5875,11.281933 74.0541667,20.4442071 C74.5597222,30.5943797 64.7986111,31.4854254 64.7986111,31.4854254 L11.2291667,22.4200041 C11.2291667,22.4200041 1.04027778,21.4902173 0.379166667,12.6378721 C-0.359722222,2.8557401 9.42083333,0.821831472 9.42083333,0.821831472" id="Fill-1" fill="#091D3C" mask="url(#mask-16)"></path>
                                </g>
                                <path d="M70.0641667,48.6380889 L93.2613889,52.5509417 C93.2613889,52.5509417 99.2308333,52.9189823 99.1336111,58.9044849 C99.0169444,64.6381702 94.5447222,65.9359976 94.5447222,65.9359976 L71.3475,62.0037742 C71.3475,62.0037742 65.3975,61.5969925 65.4947222,55.6696016 C65.5919444,49.9746575 70.0641667,48.6380889 70.0641667,48.6380889" id="Fill-4" fill="#98BBEA"></path>
                                <g id="Group-19" transform="translate(0.000000, 0.509187)">
                                    <path d="M18.7852778,77.3552 C24.5019444,80.2220426 31.1519444,80.3576365 37.2380556,78.5755452 C37.8019444,78.4205807 38.9102778,77.7813523 39.4547222,77.839464 C39.5908333,77.8588345 39.7269444,78.013799 39.8436111,78.0525401 C40.5436111,78.3237279 41.2436111,78.8273624 41.9047222,79.195403 L45.6380556,81.2293117 C39.9019444,83.3600731 33.5241667,83.8830782 27.6908333,81.8685401 C24.3075,80.7256772 21.1769444,78.6917685 18.0463889,76.9871594 C18.2991667,77.1227533 18.5325,77.2389766 18.7852778,77.3552" id="Fill-6" fill="#285187"></path>
                                    <path d="M41.0588889,77.2137949 C51.3061111,72.8360487 59.3366667,63.9062213 64.0227778,53.9691249 C68.6894444,44.1095107 70.595,31.9835411 66.5311111,21.5428102 C64.4505556,16.1771655 60.7561111,11.4313787 55.6227778,8.62264772 C59.745,10.889003 64.1005556,12.8841706 67.3866667,16.3321299 C72.5588889,21.7558863 74.7172222,29.2716629 74.8922222,36.6131046 C75.2422222,52.2257746 66.6088889,68.264597 53.7172222,77.0394599 C52.0838889,78.1435817 50.3727778,79.1508508 48.5838889,79.9837848 C48.1366667,80.1968609 47.6894444,80.4099371 47.2227778,80.6036426 C46.8922222,80.7586071 46.0172222,81.2622416 45.6672222,81.2235005 C45.4727778,81.2041299 45.2394444,81.0104244 45.0644444,80.9135716 C43.1977778,79.886932 41.3311111,78.8602924 39.4644444,77.8530234 C40.0088889,77.6399472 40.5338889,77.4462416 41.0588889,77.2137949" id="Fill-8" fill="#285187"></path>
                                    <path d="M62.5255556,5.62408528 C56.4005556,3.0090599 49.4783333,2.91220711 43.1005556,4.69429848 C42.245,4.92674518 40.6894444,5.75967919 39.8533333,5.62408528 C39.2505556,5.52723249 38.4533333,4.84926294 37.9088889,4.55870457 L33.8061111,2.3117198 C39.8922222,0.045364467 46.6394444,-0.671346193 52.9783333,1.07200406 C57.1783333,2.21486701 60.9505556,4.61681624 64.7422222,6.68946599 C64.0227778,6.30205482 63.2838889,5.95338477 62.5255556,5.62408528" id="Fill-10" fill="#285187"></path>
                                    <g id="Group-14" transform="translate(0.000000, 2.228426)">
                                        <mask id="mask-18" fill="white">
                                            <use xlink:href="#path-17"></use>
                                        </mask>
                                        <g id="Clip-13"></g>
                                        <path d="M0.528888889,43.5740711 C1.90944444,34.1987208 5.79833333,25.1914112 11.4566667,17.5981523 C14.49,13.4722234 18.0677778,9.73370558 22.1511111,6.61504569 C24.0177778,5.16225381 26.0205556,3.84505584 28.0816667,2.70219289 C28.9761111,2.21792893 29.89,1.75303553 30.8038889,1.32688325 C31.5233333,0.997583756 32.9816667,0.0484263959 33.74,0.106538071 C34.5955556,0.164649746 35.8788889,1.2106599 36.6372222,1.63681218 C37.765,2.23729949 38.8733333,2.8377868 39.9816667,3.45764467 C27.3816667,8.12594924 17.4844444,18.7991269 11.7677778,30.6926497 C6.32333333,42.0050558 4.10666667,55.7775228 8.44277778,67.8260102 C10.7761111,74.3151472 15.1705556,80.1069442 21.315,83.4580508 C17.0761111,81.1335838 12.6427778,79.060934 9.18166667,75.6129746 C3.99,70.4022944 1.15111111,63.2739289 0.315,56.0680812 C-0.171111111,51.9034112 -0.0933333333,47.7 0.528888889,43.5740711" id="Fill-12" fill="#285187" mask="url(#mask-18)"></path>
                                    </g>
                                    <path d="M16.9147222,31.9835411 C6.60916667,50.8310944 9.13694444,72.0224853 22.5925,79.3445563 C36.0480556,86.6472569 55.3175,77.3106477 65.6425,58.482465 C75.9675,39.6542822 73.4202778,18.4435208 59.9647222,11.1214497 C46.5091667,3.81874924 27.2397222,13.1553584 16.9147222,31.9835411" id="Fill-15" fill="#F2F2F6" opacity="0.675725446"></path>
                                    <path d="M40.3958333,11.1485685 C57.9152778,4.67880203 73.3541667,15.119533 74.7930556,34.4319797 C76.2513889,53.763797 63.1652778,74.7421117 45.6458333,81.2312487 C28.1263889,87.7203858 12.7069444,77.2602843 11.2486111,57.9478376 C9.80972222,38.6160203 22.8763889,17.618335 40.3958333,11.1485685 M6.30972222,59.7686701 C7.98194444,82.1029239 25.8125,94.1707817 46.0541667,86.6937462 C66.3152778,79.1973401 81.4236111,54.945401 79.7319444,32.5917766 C78.0597222,10.2768934 60.2486111,-1.79096447 39.9875,5.68607107 C19.7458333,13.1824772 4.6375,37.4344162 6.30972222,59.7686701" id="Fill-17" fill="#4577BB"></path>
                                </g>
                                <path d="M124.9325,57.1805052 C123.999167,56.9286879 123.065833,56.6768707 122.151944,56.4056828 C121.763056,56.3088301 121.354722,56.1926067 120.965833,56.2119773 C120.499167,56.2119773 119.585278,56.3475712 119.138056,56.4637945 C118.574167,56.5800179 117.835278,56.7156118 117.271389,56.7543529 C117.018611,56.7737235 116.746389,56.7737235 116.493611,56.793094 C116.143611,56.8318351 115.774167,56.7737235 115.463056,56.5800179 C115.288056,56.444424 114.918611,56.0957539 115.210278,55.8826778 C115.268611,55.8439366 115.579722,55.7664544 115.638056,55.7470839 C116.0075,55.6502311 116.124167,55.6308605 116.474167,55.5727488 C116.746389,55.5146372 117.018611,55.475896 117.271389,55.3209316 C117.388056,55.2628199 117.524167,55.1465965 117.601944,55.0110026 C117.738056,54.7591854 117.271389,54.8172971 117.154722,54.8172971 C116.493611,54.8560382 116.513056,54.8366676 115.890833,54.9335204 C115.249167,55.0497438 114.626944,55.2047082 114.004722,55.4371549 C113.9075,55.4952666 113.771389,55.5340077 113.654722,55.5727488 C112.993611,55.8633072 113.285278,55.8439366 112.624167,56.0763834 C112.468611,56.134495 112.274167,56.1926067 112.118611,56.1151245 C111.9825,56.0376422 111.885278,55.8826778 111.963056,55.7470839 C112.1575,55.2821905 112.526944,54.952891 112.954722,54.6817031 C112.701944,54.6817031 112.449167,54.6817031 112.215833,54.6817031 C111.963056,54.6817031 111.613056,54.5461092 111.671389,54.3136625 C111.690833,54.2361803 111.749167,54.1780686 111.8075,54.1393275 C112.079722,53.9068808 112.449167,53.7906575 112.779722,53.7131752 C113.926944,53.4032463 114.2575,53.4807285 115.443611,53.2482818 C114.763056,53.3257641 114.510278,53.3838757 113.849167,53.461358 C113.576944,53.5000991 113.2075,53.5000991 113.129722,53.2870229 C113.0325,53.0352057 113.421389,52.7640179 113.771389,52.7059062 C115.793611,52.2603834 116.940833,52.2797539 118.826944,51.9504544 C119.410278,51.8729722 119.974167,52.1054189 120.518611,52.2410128 C121.238056,52.4153478 121.899167,52.7059062 122.599167,52.8802412 C123.571389,53.1320585 124.543611,53.3838757 125.515833,53.635693 C125.924167,53.7519163 126.138056,54.294292 126.1575,54.7204443 C126.196389,55.1465965 126.118611,55.5727488 126.021389,55.9795306 C125.963056,56.2894595 125.885278,56.5800179 125.729722,56.8318351 C125.554722,57.0836524 125.224167,57.2579874 124.9325,57.1805052" id="Fill-20" fill="#D6AC8E"></path>
                                <path d="M142.088333,64.1984585 C141.738333,64.2953113 141.388333,64.3340524 141.038333,64.217829 C138.996667,63.5786006 136.935556,62.9393722 134.893889,62.2807732 C132.016111,61.3897275 129.002222,59.9950473 126.202222,58.8909255 C124.53,58.2129559 122.741111,57.0313519 121.146667,56.1984179 C121.457778,54.5325498 122.08,53.7770981 122.507778,52.1306006 C124.996667,53.2153519 127.543889,54.2226209 130.188333,54.9005905 C134.485556,56.0047123 139.210556,56.1403062 142.924444,58.6003671 C143.138333,58.735961 143.488333,58.8521844 143.663333,59.0265194 C144.752222,60.053159 144.791111,62.2226615 143.682778,63.2299306 C143.235556,63.6173417 142.671667,64.0241235 142.088333,64.1984585" id="Fill-22" fill="#C4601D"></path>
                                <path d="M141.092778,53.8216504 C141.092778,53.6860564 140.548333,54.0347265 140.431667,54.0928382 L140.062222,54.3059143 C139.731667,54.4996199 139.303889,54.364026 139.148333,54.0153559 C138.642778,52.9112341 137.942778,51.8264828 137.417778,50.8773255 C137.378889,50.7804727 137.34,50.7029905 137.242778,50.6642493 C137.223333,50.6448788 137.184444,50.6255082 137.145556,50.6255082 C136.776111,50.6061377 136.445556,50.5867671 136.095556,50.5673965 C135.259444,50.548026 134.365,50.3155793 133.626111,51.0322899 C133.217778,51.4197011 133.042778,51.9814473 133.062222,52.5431935 C133.14,53.8603915 133.198333,55.19696 133.256667,56.514158 C133.295556,56.9984219 132.945556,57.4245742 132.459444,57.4826859 C132.401111,57.5020564 132.342778,57.5020564 132.284444,57.5020564 C131.778889,57.5601681 131.078889,57.7926148 130.573333,57.695762 C130.612222,58.6836605 131.215,59.2260361 131.934444,59.9233762 C132.653889,60.6207163 133.626111,61.0468686 134.617778,61.1824625 C135.687222,61.337427 136.951111,61.2793153 138.001111,61.0662392 C140.587222,60.504493 143.756667,55.8749295 141.092778,53.8216504" id="Fill-24" fill="#D6AC8E"></path>
                                <path d="M133.163333,54.4182636 C133.163333,54.4182636 134.699444,54.5538575 135.943889,53.9727407 C135.943889,53.9727407 137.596667,53.6628118 138.782778,52.2875021 C138.782778,52.2875021 138.938333,53.7015529 139.152222,54.0114818 C139.560556,54.6700808 140.105,54.3020402 140.105,54.3020402 C140.105,54.3020402 137.499444,55.8710554 135.963333,55.9097965 C134.407778,55.9485377 133.202222,55.3674209 133.202222,55.231827 C133.182778,55.057492 133.182778,54.5925986 133.163333,54.4182636" id="Fill-26" fill="#AF896E"></path>
                                <g id="Group-30" transform="translate(116.666667, 118.960964)">
                                    <mask id="mask-20" fill="white">
                                        <use xlink:href="#path-19"></use>
                                    </mask>
                                    <g id="Clip-29"></g>
                                    <path d="M8.35138889,10.2431513 C8.44861111,11.1923086 8.54583333,12.2770599 8.46805556,13.3036995 C8.39027778,14.4078213 7.72916667,15.3763492 7.6125,16.4029888 C7.59305556,16.5579533 7.67083333,16.7129178 7.74861111,16.8485117 C8.62361111,18.2238213 10.5875,17.448999 11.9875,17.0034761 C13.6597222,16.4804711 14.3986111,16.1511716 14.2236111,14.4465624 C14.0097222,12.4126538 13.6986111,10.3981157 13.2902778,8.40294822 C13.2513889,8.2286132 13.2125,8.03490761 13.1347222,7.87994315 C13.0180556,7.68623756 12.8625,7.55064365 12.6875,7.41504975 C11.6958333,6.71770964 10.2958333,6.65959797 9.24583333,7.2988264 C8.21527778,7.91868426 8.23472222,9.04217665 8.35138889,10.2431513" id="Fill-28" fill="#F5B689" mask="url(#mask-20)"></path>
                                </g>
                                <g id="Group-33" transform="translate(116.666667, 118.960964)">
                                    <mask id="mask-22" fill="white">
                                        <use xlink:href="#path-21"></use>
                                    </mask>
                                    <g id="Clip-32"></g>
                                    <path d="M9.15833333,12.2208853 C9.15833333,12.2208853 12.7944444,12.7438904 13.475,12.2402558 C14.1166667,11.7559919 13.9027778,11.9109563 13.9027778,11.9109563 L14.0583333,13.0925604 C14.0583333,13.0925604 13.4166667,13.8480122 11.8027778,14.2160528 C10.2861111,14.5647228 8.34166667,14.0804589 8.34166667,14.0804589 C8.34166667,14.0804589 8.69166667,12.7051492 8.41944444,12.2015147 C8.28333333,11.8915858 8.94444444,12.2015147 9.15833333,12.2208853" id="Fill-31" fill="#C08458" mask="url(#mask-22)"></path>
                                </g>
                                <g id="Group-36" transform="translate(116.666667, 118.960964)">
                                    <mask id="mask-24" fill="white">
                                        <use xlink:href="#path-23"></use>
                                    </mask>
                                    <g id="Clip-35"></g>
                                    <path d="M2.18944444,16.1453604 C3.88111111,17.4819289 3.93944444,18.1598985 6.07833333,18.4504569 C6.35055556,18.489198 6.64222222,18.5085685 6.895,18.6054213 C7.71166667,18.9347208 9.11166667,18.1986396 9.83111111,18.6829036 C10.0061111,18.7991269 10.1811111,18.8959797 10.3366667,18.9928325 C10.745,19.2252792 11.0755556,19.3415025 11.4255556,19.3608731 C11.4838889,19.3802437 11.5422222,19.3802437 11.5811111,19.3802437 C12.0283333,19.3608731 12.495,19.2059086 13.1172222,18.9153503 C13.895,18.5473096 14.245,17.8112284 14.3033333,16.8814416 C14.3227778,16.7652183 14.3227778,16.6489949 14.3227778,16.5521421 L14.3227778,16.5327716 C14.3227778,16.164731 14.4783333,15.7773198 14.4394444,15.3899086 C14.3227778,14.4794924 14.3422222,13.9371168 13.9922222,13.1041827 C13.6422222,13.4141117 13.9922222,14.7119391 11.8144444,15.6610964 C10.8811111,16.0485076 8.23666667,15.196203 8.33388889,14.2083046 C8.35333333,13.9758579 5.32,14.363269 4.73666667,14.2664162 C3.93944444,14.1501929 2.18944444,13.5690761 1.48944444,14.0727107 C1.37277778,14.1308223 1.31444444,14.2276751 1.25611111,14.3051574 C0.808888889,14.9443858 1.68388889,15.7385787 2.18944444,16.1453604" id="Fill-34" fill="#150E33" mask="url(#mask-24)"></path>
                                </g>
                                <g id="Group-39" transform="translate(116.666667, 118.960964)">
                                    <mask id="mask-26" fill="white">
                                        <use xlink:href="#path-25"></use>
                                    </mask>
                                    <g id="Clip-38"></g>
                                    <path d="M2.18944444,16.1453604 C3.88111111,17.4819289 3.93944444,18.1598985 6.07833333,18.4504569 C6.35055556,18.489198 6.64222222,18.5085685 6.895,18.6054213 C7.71166667,18.9347208 9.11166667,18.1986396 9.83111111,18.6829036 C10.0061111,18.7991269 10.1811111,18.8959797 10.3366667,18.9928325 C10.7255556,19.2059086 11.0755556,19.322132 11.4255556,19.3608731 C11.4838889,19.3802437 11.5422222,19.3802437 11.5811111,19.3802437 C12.0283333,19.3608731 12.495,19.2059086 13.1172222,18.9153503 C13.895,18.5473096 14.245,17.8112284 14.2838889,16.8814416 C13.6616667,17.5400406 12.2811111,18.837868 11.445,18.5860508 C10.3366667,18.2373807 9.96722222,17.656264 7.98388889,18.1211574 C6.00055556,18.5666802 3.62833333,16.9589239 3.45333333,16.7845888 C3.27833333,16.6102538 1.66444444,15.3511675 1.50888889,15.0993503 C1.37277778,14.9056447 1.25611111,14.5376041 1.25611111,14.3051574 C0.808888889,14.9443858 1.68388889,15.7385787 2.18944444,16.1453604" id="Fill-37" fill="#0E0E4C" mask="url(#mask-26)"></path>
                                </g>
                                <g id="Group-42" transform="translate(136.111111, 118.960964)">
                                    <mask id="mask-28" fill="white">
                                        <use xlink:href="#path-27"></use>
                                    </mask>
                                    <g id="Clip-41"></g>
                                    <path d="M3.80333333,6.78163249 C3.88111111,7.67267817 3.97833333,8.71868832 3.92,9.66784569 C3.84222222,10.7332264 3.22,11.6242721 3.10333333,12.5928 C3.08388889,12.7477645 3.16166667,12.9027289 3.23944444,13.0383228 C4.05611111,14.3361503 5.90333333,14.4523736 7.245,14.0262213 C8.82,13.5419574 9.50055556,12.3603533 9.345,10.7719675 C9.15055556,8.83491168 8.85888889,6.93659695 8.47,5.03828223 C8.43111111,4.86394721 8.39222222,4.70898274 8.31444444,4.55401827 C8.21722222,4.36031269 8.06166667,4.24408934 7.90611111,4.12786599 C6.97277778,3.44989645 5.63111111,3.41115533 4.63944444,3.99227208 C3.66722222,4.59275939 3.68666667,5.63876954 3.80333333,6.78163249" id="Fill-40" fill="#F5B689" mask="url(#mask-28)"></path>
                                </g>
                                <g id="Group-45" transform="translate(136.111111, 118.960964)">
                                    <mask id="mask-30" fill="white">
                                        <use xlink:href="#path-29"></use>
                                    </mask>
                                    <g id="Clip-44"></g>
                                    <path d="M4.00361111,10.1482355 C4.00361111,10.1482355 3.88694444,8.38551472 4.00361111,8.2111797 C4.12027778,8.07558579 5.83138889,9.19907817 7.07583333,8.59859086 C8.30083333,7.99810355 8.98138889,7.99810355 9.09805556,7.49446904 C9.23416667,6.99083452 9.09805556,8.73418477 9.09805556,8.73418477 C9.09805556,8.73418477 9.07861111,8.94726091 9.15638889,9.19907817 C9.23416667,9.47026599 7.42583333,10.3419411 6.41472222,10.5550173 C5.53972222,10.7487228 4.37305556,10.3419411 4.00361111,10.1482355" id="Fill-43" fill="#C08458" mask="url(#mask-30)"></path>
                                </g>
                                <g id="Group-48" transform="translate(116.666667, 118.960964)">
                                    <mask id="mask-32" fill="white">
                                        <use xlink:href="#path-31"></use>
                                    </mask>
                                    <g id="Clip-47"></g>
                                    <path d="M23.4480556,9.90222944 C23.2147222,10.8707574 25.6063889,11.8199147 26.5786111,11.5293563 C28.8730556,10.8707574 28.2897222,9.97971168 28.6786111,9.70852386 C28.9119444,10.580199 29.0675,11.1419452 29.0675,12.0523614 C29.0675,13.6601178 28.9897222,14.7642396 27.7452778,15.1710213 C26.3452778,15.6359147 25.5675,15.5584325 24.3813889,14.5317929 C23.7202778,13.9506761 22.2425,14.5317929 21.4647222,14.1056406 C21.2313889,13.9506761 20.9397222,13.911935 20.6675,13.8344528 C18.5869444,13.2727066 18.6063889,12.6141076 17.0897222,11.0838335 C16.5647222,10.5608284 15.6508333,9.47607716 16.6619444,8.93370152 C17.4397222,8.54629036 19.0730556,9.32111269 19.8508333,9.53418883 C20.4341667,9.6891533 23.4869444,9.6891533 23.4480556,9.90222944" id="Fill-46" fill="#150E33" mask="url(#mask-32)"></path>
                                </g>
                                <g id="Group-51" transform="translate(116.666667, 118.960964)">
                                    <mask id="mask-34" fill="white">
                                        <use xlink:href="#path-33"></use>
                                    </mask>
                                    <g id="Clip-50"></g>
                                    <path d="M17.0586111,11.0664 C18.5363889,12.6354152 18.5363889,13.1971614 20.5975,13.8170193 C20.8697222,13.8945015 21.2197222,13.9526132 21.4725,14.1075777 C22.2113889,14.5531005 23.7280556,13.9332426 24.3697222,14.5337299 C24.5252778,14.6693239 24.7002778,14.7855472 24.8363889,14.9017706 C25.1863889,15.1535878 25.5363889,15.3279228 25.8669444,15.4247756 C25.9252778,15.4441462 25.9641667,15.4441462 26.0225,15.4635168 C26.4502778,15.5022579 26.9363889,15.4247756 27.5975,15.2310701 C28.5308333,14.9792528 28.9002778,14.4562477 29.0169444,13.390867 C28.2975,13.9526132 26.7808333,15.0373645 26.0030556,14.6693239 C24.9530556,14.1463188 24.6808333,13.6233137 22.6391667,13.7782782 C20.6169444,13.9332426 18.3613889,12.0930396 18.2058333,11.8799635 C18.0697222,11.6862579 16.6502778,10.2140954 16.5336111,9.94290761 C16.4363889,9.72983147 16.3975,9.32304975 16.4169444,9.1099736 C15.8530556,9.69109036 16.6113889,10.6015066 17.0586111,11.0664" id="Fill-49" fill="#0E0E4C" mask="url(#mask-34)"></path>
                                </g>
                                <path d="M145.609722,100.915352 C145.531944,105.331839 145.823611,108.992875 146.173611,113.389991 C146.368056,115.675717 146.018056,117.84522 146.0375,120.130946 C146.056944,121.351291 146.0375,122.571636 145.979167,123.772611 C145.959722,124.547433 146.616667,128.225178 146.5,129 C146.383333,129.736081 145.741667,130.239716 145.197222,130.704609 C144.263889,131.460061 143.136111,131.924954 141.911111,131.866843 C141.133333,131.828102 140.355556,131.595655 139.675,131.188873 C139.383333,130.995168 138.197222,130.39468 138.197222,130.007269 C138.216667,121.484223 138.551389,115.559494 138.026389,107.075189 C137.929167,105.389951 137.851389,103.065484 137.559722,101.399616 C137.268056,99.7531184 137.209722,97.486763 138.026389,96.0146006 C137.404167,96.7313113 137.034722,97.4673925 136.5875,98.3196971 C135.673611,100.082418 135.654167,102.619961 135.343056,104.576387 C134.779167,108.004976 134.370833,110.387555 133.729167,113.370621 C133.398611,114.959007 133.243056,116.586134 133.106944,118.213261 C132.776389,122.00989 132.483333,128.866802 131.783333,132.62469 C131.588889,133.690071 130.830556,134.096853 129.936111,134.561746 C128.866667,135.084751 128.244444,135.433421 126.455556,135.37531 C125.872222,135.355939 125.288889,135.162234 124.822222,134.852305 C124.725,134.774822 123.5,134.038741 123.5,134 C123.655556,128.556873 124.181944,120.169687 124.823611,114.745931 C125.0375,112.944469 124.551389,111.143007 124.765278,109.341545 C125.659722,102.310032 125.756944,95.2397783 126.223611,88.1695245 C126.456944,84.3535245 130.520833,81.6416463 134.098611,80.2275955 C137.676389,78.7941742 141.818056,79.1041031 145.298611,80.7506006 C147.806944,86.4842859 145.726389,94.6586615 145.609722,100.915352 Z" id="Fill-52" fill="#091D3C"></path>
                                <path d="M130.373056,49.1978981 C130.450833,49.8952382 130.548056,50.6119488 130.645278,51.3092889 C130.723056,51.9678879 130.800833,52.6264869 131.150833,53.1882331 C131.675833,54.0405377 132.725833,54.4666899 133.7175,54.4666899 C134.728611,54.4666899 135.700833,54.0986493 136.595278,53.6724971 C137.3925,53.3044564 138.150833,52.8783042 138.7925,52.2971874 C140.445278,50.7669133 140.989722,48.190629 140.173056,46.0986087 C139.181389,43.5029539 136.148056,41.8370859 133.3675,42.360091 C130.256389,42.9412077 130.061944,46.6797255 130.373056,49.1978981" id="Fill-58" fill="#D6AC8E"></path>
                                <path d="M132.908611,41.2424097 C131.644722,41.3392625 129.2725,41.7266737 129.350278,43.4119123 C129.4475,46.0075671 133.880833,45.968826 135.553056,46.317496 C136.758611,46.5693133 137.400278,46.5886839 137.866944,47.9058818 C137.1475,46.6467955 135.591944,46.6467955 134.483611,46.4337194 C134.464167,46.4337194 134.405833,46.8598717 134.405833,46.8986128 C134.386389,47.2085417 134.425278,47.6153235 134.5225,47.9058818 C134.639167,48.2351813 134.639167,48.2739224 134.794722,48.777557 C134.833611,48.9131509 134.911389,49.0874859 134.950278,49.300562 C137.633611,48.4869986 135.980833,53.0584504 134.989167,51.6056585 C134.950278,51.5669174 135.378056,53.5814554 136.350278,54.4143894 C137.244722,54.4531306 138.7225,54.4531306 139.636389,53.5039732 C140.394722,52.6904097 141.230833,51.0826534 141.444722,49.9979021 C142.864167,42.98576 137.730833,40.8743691 132.908611,41.2424097" id="Fill-60" fill="#25326A"></path>
                                <path d="M145.743889,65.986361 C145.918889,63.487559 146.268889,62.654625 146.152222,58.9161072 C146.113333,57.8894676 146.268889,54.6545844 145.607778,53.8603915 C144.791111,52.872493 143.313333,52.6787874 142.185556,53.221163 C141.718889,53.4536097 141.738333,53.3761275 141.291111,53.6279448 C140.824444,53.879762 140.63,53.9572443 140.182778,54.2478026 C140.124444,54.2865438 140.105,54.2671732 140.105,54.3446554 C140.182778,55.2357011 140.805,55.8749295 140.824444,56.7853458 C140.863333,57.6570209 140.552222,58.4512138 140.046667,59.1679245 C139.113333,60.4463813 137.557778,61.2405742 135.963333,61.2405742 C134.796667,61.2405742 133.591111,60.9693864 132.618889,60.3495285 C131.627222,59.7103001 130.868889,58.7030311 130.655,57.5601681 C128.555,57.7345031 126.591111,58.2575082 124.899444,59.5359651 C123.227222,60.8144219 122.274444,62.9064422 122.313333,65.0178331 C122.410556,68.6982392 121.73,71.3326351 120.796667,75.2261174 C120.077222,74.9936707 119.843889,74.9743001 119.843889,74.9743001 C119.843889,74.9743001 116.441111,74.2963306 111.832778,73.5796199 C110.957778,73.444026 115.274444,77.6861783 115.760556,78.3447773 C116.693889,79.6232341 117.666111,80.9210615 118.93,81.8702189 C120.174444,82.8000057 123.635556,83.7297925 124.627222,81.9283306 C125.482778,80.3593153 125.891111,79.7975691 126.28,78.0735894 C126.785556,75.7491224 127.116111,74.8387062 127.291111,72.4561275 C126.999444,77.4731021 126.416111,83.3423813 126.221667,88.8436199 C126.688333,89.3859955 127.368889,89.5215894 128.03,89.7927773 C129.410556,90.4126351 130.888333,90.8000463 132.385556,90.9550108 C134.816111,91.206828 137.032778,90.2383001 139.268889,89.2891427 C141.524444,88.3206148 143.838333,87.7201275 145.316111,85.7637011 C147.221667,83.2648991 145.296667,78.0735894 145.160556,74.9161884 C145.024444,71.6425641 145.471667,70.3253661 145.743889,65.986361" id="Fill-62" fill="#F7893F"></path>
                            </g>
                        </g>
                    </g>
                    <g id="Group-205" transform="translate(254.000000, 0.000000)">
                        <g id="Group-58" transform="translate(25.000000, 82.000000)">
                            <path d="M1.57748417,124.310327 L54.5767427,101.609612 C55.4696287,101.227169 56.4924217,101.3007 57.321419,101.806932 L175.079446,173.716547 C176.022146,174.292212 176.319686,175.52309 175.744021,176.46579 C175.564803,176.759275 175.312941,177.001592 175.012754,177.169343 L128.524439,203.148108 C127.582156,203.674678 126.42963,203.65443 125.506425,203.095086 L1.32856813,127.859323 C0.383863307,127.286953 0.0820257008,126.057122 0.654394967,125.112417 C0.870801347,124.755235 1.1935912,124.474756 1.57748417,124.310327 Z" id="Path-214" stroke="#DEE7F6" fill-rule="nonzero"></path>
                            <polygon id="Fill-3" fill="#9CBEEB" points="47 54.0587107 69.7996364 40.8426396 69.7996364 128.913797 47 142.114447"></polygon>
                            <polygon id="Fill-5" fill="#F7893F" points="24 41.1203959 46.9071818 54.2593604 69.7068182 41.0432893 46.9071818 27.8426396"></polygon>
                            <polygon id="Fill-7" fill="#CADEF1" points="24 128.913797 46.9071818 142.052761 46.9071818 53.9970254 24 40.8426396"></polygon>
                            <mask id="mask-36" fill="white">
                                <use xlink:href="#path-35"></use>
                            </mask>
                            <g id="Clip-9"></g>
                            <polygon id="Fill-8" fill="url(#linearGradient-37)" points="64.0017273 153.235503 86.9242727 139.957746 109.708545 153.173817 86.9242727 166.374467"></polygon>
                            <polygon id="Fill-12" fill="#9CBEEB" points="87 100.058711 109.799636 86.8426396 109.799636 153.323949 87 166.524599"></polygon>
                            <polygon id="Fill-14" fill="#6397DE" points="64 87.1203959 86.9225455 73.8426396 109.722182 87.0587107 86.9225455 100.274782"></polygon>
                            <polygon id="Fill-16" fill="#CADEF1" points="64 86.8426396 64 153.323949 86.9225455 166.462914 86.9225455 99.9970254"></polygon>
                            <mask id="mask-39" fill="white">
                                <use xlink:href="#path-38"></use>
                            </mask>
                            <g id="Clip-18"></g>
                            <polygon id="Fill-21" fill="#9CBEEB" points="126 142.043289 148.799636 128.84264 148.799636 177.111371 126 190.327442"></polygon>
                            <polygon id="Fill-23" fill="#6397DE" points="104 129.120396 126.922545 115.84264 148.5 129.051 126.922545 142.25936"></polygon>
                            <polygon id="Fill-25" fill="#CADEF1" points="104 128.84264 104 177.126792 126.922545 190.265756 126.922545 141.981604"></polygon>
                            <mask id="mask-41" fill="white">
                                <use xlink:href="#path-40"></use>
                            </mask>
                            <g id="Clip-27"></g>
                            <mask id="mask-43" fill="white">
                                <use xlink:href="#path-42"></use>
                            </mask>
                            <g id="Clip-36"></g>
                            <polygon id="Fill-35" fill="#347ADA" points="46.5882727 39.6035736 47.2335455 40.1278985 74.9341818 5.05981726 85.9806364 87.363401 114.372636 59.7592386 126.494545 129.664081 127.078364 128.106528 114.925727 58.0628934 86.5951818 85.6053706 75.5026364 2.97793909"></polygon>
                            <mask id="mask-45" fill="white">
                                <use xlink:href="#path-44"></use>
                            </mask>
                            <g id="Clip-39"></g>
                            <mask id="mask-47" fill="white">
                                <use xlink:href="#path-46"></use>
                            </mask>
                            <g id="Clip-42"></g>
                            <path d="M126.968273,131.89734 C128.274182,131.89734 129.349636,130.833269 129.349636,129.507036 C129.349636,128.196223 128.274182,127.132152 126.968273,127.132152 C125.647,127.132152 124.586909,128.196223 124.586909,129.507036 C124.586909,130.833269 125.647,131.89734 126.968273,131.89734 Z" id="Fill-41" fill="#FFFFFF"></path>
                            <mask id="mask-49" fill="white">
                                <use xlink:href="#path-48"></use>
                            </mask>
                            <g id="Clip-45"></g>
                            <mask id="mask-51" fill="white">
                                <use xlink:href="#path-50"></use>
                            </mask>
                            <g id="Clip-48"></g>
                            <path d="M115.21,62.8547411 C117.161182,62.8547411 118.759,61.2663452 118.759,59.2769949 C118.759,57.303066 117.161182,55.6992487 115.21,55.6992487 C113.228091,55.6992487 111.630273,57.303066 111.630273,59.2769949 C111.630273,61.2663452 113.228091,62.8547411 115.21,62.8547411 Z" id="Fill-47" fill="#FFFFFF"></path>
                            <mask id="mask-53" fill="white">
                                <use xlink:href="#path-52"></use>
                            </mask>
                            <g id="Clip-51"></g>
                            <path d="M86.5606364,88.7680914 C87.8665455,88.7680914 88.942,87.688599 88.942,86.3777868 C88.942,85.0515533 87.8665455,83.9874822 86.5606364,83.9874822 C85.2393636,83.9874822 84.1792727,85.0515533 84.1792727,86.3777868 C84.1792727,87.688599 85.2393636,88.7680914 86.5606364,88.7680914 Z" id="Fill-50" fill="#FFFFFF"></path>
                            <mask id="mask-55" fill="white">
                                <use xlink:href="#path-54"></use>
                            </mask>
                            <g id="Clip-54"></g>
                            <path d="M75.5141818,0.43342132 C73.5476364,0.43342132 71.9344545,2.03723858 71.9344545,4.01116751 C71.9344545,6.00051777 73.5476364,7.60433503 75.5141818,7.60433503 C77.4653636,7.60433503 79.0785455,6.00051777 79.0785455,4.01116751 C79.0785455,2.03723858 77.4653636,0.43342132 75.5141818,0.43342132 Z" id="Fill-53" fill="#FFFFFF"></path>
                            <mask id="mask-57" fill="white">
                                <use xlink:href="#path-56"></use>
                            </mask>
                            <g id="Clip-57"></g>
                            <path d="M46.8955455,42.413401 C48.2321818,42.413401 49.2922727,41.3339086 49.2922727,40.0230964 C49.2922727,38.7122843 48.2321818,37.6482132 46.8955455,37.6482132 C45.5896364,37.6482132 44.5295455,38.7122843 44.5295455,40.0230964 C44.5295455,41.3339086 45.5896364,42.413401 46.8955455,42.413401 Z" id="Fill-56" fill="#FFFFFF"></path>
                        </g>
                        <path d="M114.352616,187.194009 L154.817054,138.745389 L191.113607,166.095908 L148.990826,216.295883 C148.53289,216.841631 147.819742,217.103381 147.117484,216.983465 L123.128255,212.887133 L114.020065,189.198778 C113.758952,188.519683 113.886225,187.752426 114.352616,187.194009 Z" id="Rectangle-3-Copy-9" fill="url(#linearGradient-58)" fill-rule="nonzero" opacity="0.576450893" transform="translate(152.500039, 177.878751) rotate(-40.000000) translate(-152.500039, -177.878751) "></path>
                        <path d="M76.124603,146.839187 L113.044711,102.614928 L149.341264,129.965447 L110.763193,175.941001 C110.305257,176.486749 109.592109,176.748499 108.889851,176.628583 L84.9006216,172.532251 L75.7923277,148.843625 C75.5312704,148.164674 75.6584305,147.397585 76.124603,146.839187 Z" id="Rectangle-3-Copy-10" fill="url(#linearGradient-58)" fill-rule="nonzero" opacity="0.576450893" transform="translate(112.499999, 139.636079) rotate(-40.000000) translate(-112.499999, -139.636079) "></path>
                        <path d="M22.7579671,95.9730303 L86.4130672,19.8853483 L122.70962,47.2358672 L57.3947198,125.075134 C56.9367831,125.620882 56.2236357,125.882632 55.5213773,125.762717 L31.532148,121.666384 L22.4243568,97.9790661 C22.163032,97.299419 22.2907367,96.5315163 22.7579671,95.9730303 Z" id="Rectangle-3-Copy-11" fill="url(#linearGradient-59)" fill-rule="nonzero" opacity="0.576450893" transform="translate(72.500191, 72.838356) rotate(-40.000000) translate(-72.500191, -72.838356) "></path>
                        <path d="M56.9537995,49 L56.9537995,49 C57.4805684,49 57.907599,49.4270306 57.907599,49.9537995 L57.907599,89.0495268 L56,89.0495268 L56,49.9537995 C56,49.4270306 56.4270306,49 56.9537995,49 Z" id="Rectangle-30" fill="url(#linearGradient-60)" fill-rule="nonzero"></path>
                        <path d="M159.9538,148 L159.9538,148 C160.480568,148 160.907599,148.427031 160.907599,148.9538 L160.907599,188.049527 L159,188.049527 L159,148.9538 C159,148.427031 159.427031,148 159.9538,148 Z" id="Rectangle-30-Copy-31" fill="url(#linearGradient-61)" fill-rule="nonzero"></path>
                        <path d="M99.9537995,134 L99.9537995,134 C100.480568,134 100.907599,134.427031 100.907599,134.9538 L100.907599,174.049527 L99,174.049527 L99,134.9538 C99,134.427031 99.4270306,134 99.9537995,134 Z" id="Rectangle-30-Copy-28" fill="url(#linearGradient-61)" fill-rule="nonzero"></path>
                        <path d="M138.9538,160 L138.9538,160 C139.480568,160 139.907599,160.427031 139.907599,160.9538 L139.907599,200.049527 L138,200.049527 L138,160.9538 C138,160.427031 138.427031,160 138.9538,160 Z" id="Rectangle-30-Copy-32" fill="url(#linearGradient-61)" fill-rule="nonzero"></path>
                        <path d="M111.9538,124 L111.9538,124 C112.480568,124 112.907599,124.427031 112.907599,124.9538 L112.907599,164.049527 L111,164.049527 L111,124.9538 C111,124.427031 111.427031,124 111.9538,124 Z" id="Rectangle-30-Copy-29" fill="url(#linearGradient-61)" fill-rule="nonzero"></path>
                        <path d="M121.9538,138 L121.9538,138 C122.480568,138 122.907599,138.427031 122.907599,138.9538 L122.907599,178.049527 L121,178.049527 L121,138.9538 C121,138.427031 121.427031,138 121.9538,138 Z" id="Rectangle-30-Copy-30" fill="url(#linearGradient-61)" fill-rule="nonzero"></path>
                        <path d="M152.9538,178 L152.9538,178 C153.480568,178 153.907599,178.427031 153.907599,178.9538 L153.907599,218.049527 L152,218.049527 L152,178.9538 C152,178.427031 152.427031,178 152.9538,178 Z" id="Rectangle-30-Copy-34" fill="url(#linearGradient-61)" fill-rule="nonzero"></path>
                        <path d="M64.9537995,81 L64.9537995,81 C65.4805684,81 65.907599,81.4270306 65.907599,81.9537995 L65.907599,121.049527 L64,121.049527 L64,81.9537995 C64,81.4270306 64.4270306,81 64.9537995,81 Z" id="Rectangle-30-Copy-24" fill="url(#linearGradient-62)" fill-rule="nonzero"></path>
                        <path d="M80.9537995,93 L80.9537995,93 C81.4805684,93 81.907599,93.4270306 81.907599,93.9537995 L81.907599,133.049527 L80,133.049527 L80,93.9537995 C80,93.4270306 80.4270306,93 80.9537995,93 Z" id="Rectangle-30-Copy-25" fill="url(#linearGradient-60)" fill-rule="nonzero"></path>
                        <path d="M86.9537995,65 L86.9537995,65 C87.4805684,65 87.907599,65.4270306 87.907599,65.9537995 L87.907599,105.049527 L86,105.049527 L86,65.9537995 C86,65.4270306 86.4270306,65 86.9537995,65 Z" id="Rectangle-30-Copy-26" fill="url(#linearGradient-60)" fill-rule="nonzero"></path>
                    </g>
                    <g id="Group-203" transform="translate(232.000000, 109.000000)">
                        <path d="M0,21.3340593 C0,20.2060536 0.25199748,18.9993356 0.756000001,17.7138691 C1.26000252,16.4284025 1.97399538,15.1903464 2.898,13.9996636 C3.82200462,12.8089808 4.883994,11.7833429 6.084,10.9227193 C7.284006,10.0620957 8.35199532,9.5601495 9.288,9.41686571 C9.91200312,9.32134319 11.4826698,9.32134319 14,9.41686571 C13.3333333,11.0536181 13,12.2479962 13,13 C13,13.7360037 13.3333333,14.7360037 14,16 C11.9573365,18.5418073 10.6240031,20.208474 10,21 C9.06399532,22.187289 7.284006,22.0140957 6.084,22.8747193 C5.283996,23.4484684 5.255996,23.8235619 6,24 C2.84000168,24.2242744 1.09200168,24.1568975 0.756000001,23.7978691 C0.25199748,23.2593265 0,22.4380648 0,21.3340593 Z M19.08,1.96221205 L21.816,0 L26,0 L8,36.972927 L3.744,36.972927 L19.08,1.96221205 Z M13.212,24.6746405 C13.212,23.5466349 13.9959975,24.2854665 14.5,23 C15.0040025,21.7145335 15.1859954,19.6906828 16.11,18.5 C17.0340046,17.3093172 18.095994,15.1239242 19.296,14.2633006 C20.496006,13.4026769 21.5579954,12.9050338 22.482,12.7703563 C23.0980031,12.6805712 24.6040031,12.6805712 27,12.7703563 C27.6666667,14.838115 28,16.2479962 28,17 C28,18.1040055 26.5160026,20.7179273 26,22 C25.4839974,23.2820727 23.9240046,23.8213172 23,25 C22.3839969,25.7857885 21.1493303,26.7065368 19.296,27.7622449 C17.7880031,27.6644598 16.7260031,27.6644598 16.11,27.7622449 C15.1859954,27.9089225 14.4720025,27.706993 13.968,27.1564504 C13.4639975,26.6059077 13.212,25.7786461 13.212,24.6746405 Z" id="%-copy" fill="#BAC6DB"></path>
                        <path d="M4,21.3340593 C4,20.2060536 4.25199748,18.9993356 4.756,17.7138691 C5.26000252,16.4284025 5.97399538,15.1903464 6.898,13.9996636 C7.82200462,12.8089808 8.883994,11.7833429 10.084,10.9227193 C11.284006,10.0620957 12.3519953,9.5601495 13.288,9.41686571 C14.2240047,9.27358192 14.9439975,9.48320823 15.448,10.0457509 C15.9520025,10.6082936 16.204,11.4535551 16.204,12.5815608 C16.204,13.6855663 15.9520025,14.8682845 15.448,16.1297509 C14.9439975,17.3912174 14.2240047,18.6155767 13.288,19.8028657 C12.3519953,20.9901547 11.284006,22.0140957 10.084,22.8747193 C8.883994,23.7353429 7.82200462,24.238986 6.898,24.3856636 C5.97399538,24.5323412 5.26000252,24.3364117 4.756,23.7978691 C4.25199748,23.2593265 4,22.4380648 4,21.3340593 Z M23.08,1.96221205 L25.816,0 L10.444,35.0365335 L7.744,36.972927 L23.08,1.96221205 Z M12.928,14.9310515 C12.928,13.9470466 12.6640026,13.3563887 12.136,13.1590603 C11.6079974,12.9617318 10.9240042,13.1642828 10.084,13.7667193 C9.2439958,14.3691558 8.56000264,15.1477011 8.032,16.1023783 C7.50399736,17.0570556 7.24,18.0263822 7.24,19.0103871 C7.24,19.9223916 7.5099973,20.4727468 8.05,20.661469 C8.5900027,20.8501913 9.26799592,20.6519434 10.084,20.0667193 C10.9240042,19.4642828 11.6079974,18.6917375 12.136,17.7490603 C12.6640026,16.806383 12.928,15.8670562 12.928,14.9310515 Z M17.212,24.6746405 C17.212,23.5466349 17.4639975,22.3399169 17.968,21.0544504 C18.4720025,19.7689838 19.1859954,18.5309277 20.11,17.3402449 C21.0340046,16.149562 22.095994,15.1239242 23.296,14.2633006 C24.496006,13.4026769 25.5579954,12.9050338 26.482,12.7703563 C27.4060046,12.6356787 28.1259974,12.845305 28.642,13.3992415 C29.1580026,13.953178 29.416,14.7941364 29.416,15.922142 C29.416,17.0261476 29.1580026,18.2191688 28.642,19.5012415 C28.1259974,20.7833142 27.4060046,22.0136735 26.482,23.1923563 C25.5579954,24.371039 24.496006,25.3906769 23.296,26.2513006 C22.095994,27.1119242 21.0340046,27.6155673 20.11,27.7622449 C19.1859954,27.9089225 18.4720025,27.706993 17.968,27.1564504 C17.4639975,26.6059077 17.212,25.7786461 17.212,24.6746405 Z M26.176,18.2458142 C26.176,17.2618093 25.9060027,16.6754545 25.366,16.4867322 C24.8259973,16.29801 24.1360042,16.504864 23.296,17.1073006 C22.4559958,17.7097371 21.7720026,18.4882823 21.244,19.4429596 C20.7159974,20.3976369 20.452,21.3669634 20.452,22.3509684 C20.452,23.3109732 20.7159974,23.8836312 21.244,24.0689596 C21.7720026,24.254288 22.4559958,24.0457371 23.296,23.4433006 C24.1360042,22.840864 24.8259973,22.0640157 25.366,21.1127322 C25.9060027,20.1614488 26.176,19.205819 26.176,18.2458142 Z" id="%" fill="#FFFFFF"></path>
                    </g>
                    <path d="M213.5,139.5 L213.5,108.908513 C213.5,90.1813584 228.681358,75 247.408513,75 L247.408513,75 C266.135668,75 281.317026,90.1813584 281.317026,108.908513 L281.317026,139.5 C273.439009,147.5 261,150.833333 244,149.5 C227,148.166667 216.833333,144.833333 213.5,139.5 Z" id="Path-215" fill="url(#linearGradient-63)" fill-rule="nonzero"></path>
                    <ellipse id="Oval-43" fill="#FFFFFF" fill-rule="nonzero" transform="translate(241.516566, 89.631695) rotate(-20.000000) translate(-241.516566, -89.631695) " cx="241.516566" cy="89.6316948" rx="11.5" ry="5"></ellipse>
                    <g id="Group-3" transform="translate(238.000000, 228.000000)">
                        <polygon id="Fill-79-Copy" fill="#7EA0CF" points="101.824177 53.5599305 101.890778 92.4656837 51.5 125 51.4167488 86.0792631"></polygon>
                        <polygon id="Fill-81-Copy" fill="#CADEF1" points="1 57 16.5754729 65.9594061 51.6700296 86.1407536 51.7832512 124.842758 1.07159606 95.8573844"></polygon>
                        <polygon id="Fill-83-Copy-4" fill="#E7E9F5" points="51.2965074 86 0.61482266 56.852587 51.2965074 24.4250039 101.710956 53.531628 94.3423892 57.7978136"></polygon>
                        <g id="Group-13-Copy" transform="translate(35.945813, 30.251989)">
                            <path d="M25.1791831,26.6376472 L9.4680504,17.6028799 L2.49753695,13.5932641 L2.49753695,12.9026103 L16.0738125,5.82698532 L38.2955665,17.8971692 L38.2955665,17.8971692 C38.4927626,18.4511248 38.2665885,19.0669126 37.7577163,19.3615348 L35.338197,20.7623661 L25.1791831,26.6376472 Z" id="Fill-83-Copy-3" fill="#7192BE"></path>
                            <path d="M25.1791831,25.8052207 L9.4680504,16.7704534 L2.49753695,12.7608377 L16.0738125,4.99455884 L37.8015422,17.1547563 C38.2029904,17.3794318 38.346293,17.8870055 38.1216175,18.2884537 C38.0440383,18.4270714 37.9284409,18.5406163 37.7884557,18.6156998 L35.338197,19.9299397 L25.1791831,25.8052207 Z" id="Fill-83-Copy" fill="#96BAEA"></path>
                            <polygon id="Fill-83-Copy-2" fill="#7192BE" points="23.4714315 22.8786404 12.159416 16.3736079 7.14064629 13.4866846 16.9155647 7.89496384 33.1602403 17.2737765 30.7859215 18.648438"></polygon>
                            <polygon id="Fill-85-Copy" fill="#CADEF1" points="3.57820126 12.7938043 24.9753695 25.8052207 25.7524944 25.4226831 24.0338291 13.5525828 0.832512315 -2.27373675e-13 0 -2.27373675e-13"></polygon>
                            <polygon id="Fill-85" fill="#97B2CC" points="2.74568894 12.7938043 24.9753695 25.8052207 23.2013168 13.5525828 0 -2.27373675e-13"></polygon>
                        </g>
                        <g id="Group-47-Copy" transform="translate(50.931034, 0.284636)" fill-rule="nonzero">
                            <path d="M17.0766551,19.9782354 C17.2436385,17.9944043 19.7377912,16.8845023 24.5591133,16.6485295 C25.316541,16.2624824 26.1490533,16.4012201 27.0566502,17.0647427 C28.75335,18.3051596 30.3866995,17.8889463 31.635468,19.5620221 C33.1862762,21.639765 32.4679803,27.0538604 30.3866995,30.7997795 C29.8284677,31.8044932 27.5830604,35.5273754 31.2192118,42.0375369 C31.2500928,42.0928262 26.5359072,39.5677992 17.0766551,34.462456 C18.1799031,32.8954662 18.7315271,31.3970986 18.7315271,29.9673531 C18.7315271,27.8227347 16.8261799,22.953982 17.0766551,19.9782354 Z" id="Path-28" fill="#F38840"></path>
                            <path d="M6.30788177,36.2048619 C12.6904762,33.430107 16.1592775,31.4877785 16.7142857,30.3778766 C17.2692939,29.2679746 17.9630542,26.3544819 18.7955665,21.6373986 C18.9449918,18.5165411 18.4646962,17.7128636 17.3546798,19.2263663 C16.2446634,20.739869 15.1986864,23.6246126 14.2167488,27.8805972 L4.64285714,33.7075825 L6.30788177,36.2048619 Z" id="Path-36" fill="#F38840"></path>
                            <path d="M17.8789771,42.1010875 C16.9472453,41.3728579 15.9255256,41.2444734 14.8138181,41.7159339 C13.1462568,42.4231247 12.4298056,43.2565485 12.4298056,44.4120094 C12.4298056,45.5674703 13.0104076,45.5674703 13.7920984,45.5674703 C14.5737892,45.5674703 14.9143625,44.4120094 15.8355378,44.4120094 C16.4496546,44.4120094 17.1308011,44.797163 17.8789771,45.5674703 L20.664471,44.0700833 C20.1697679,44.5548031 19.9224164,44.4120094 19.9224164,43.6417021 C19.9224164,42.6146257 19.7600941,42.0795447 19.4354496,42.036459 L17.8789771,42.1010875 Z" id="Path-40" fill="#D6AC8E" transform="translate(16.547138, 43.502744) rotate(-30.000000) translate(-16.547138, -43.502744) "></path>
                            <polygon id="Path-37" fill="#E37932" points="17.8990148 40.7888972 19.9802956 43.2861766 27.8891626 37.0429781 32.4679803 24.556581 30.3866995 20.8106618 25.1834975 34.1294854"></polygon>
                            <path d="M20.3965517,2.08106618 C21.6453202,0.832426474 24.1428571,-0.416213237 25.3977429,1.24863971 C27.8891626,-0.832426474 31.2253291,2.22776789 32.0578415,5.55747378 C32.5530443,7.53808109 32.0688557,8.96714995 32.4679803,10.9682459 C33.0033135,13.6522525 34.0158317,13.4048665 34.1330049,14.9836765 C34.200211,15.8892212 33.7617847,17.9027704 33.3066099,20.1249371 C33.1806933,20.7396632 34.3178239,23.1588749 34.1330049,23.7241545 C33.343493,26.1389225 31.9387716,25.4732716 30.3866995,26.2214339 C28.6988169,27.0350624 26.8659979,29.5389766 26.2241379,28.7187133 C25.9339381,28.3478533 25.3761081,25.8839904 25.8078818,23.7241545 C26.0822966,22.3514657 27.3154771,21.4837144 27.4729064,20.1249371 C27.675913,18.3727814 27.1878626,16.6259126 27.0566502,16.2323162 C26.2241379,13.7350368 28.6114345,13.3032878 28.311536,11.3844591 C28.0116376,9.46563044 25.9063142,7.46328449 25.3977429,8.0547532 C24.8803182,8.65651853 24.1865579,8.51778078 23.3164622,7.63853997 C23.141295,8.46973263 22.8617518,9.39199628 22.4778325,10.4053309 C21.4564225,13.1012886 19.4724195,8.93695112 19.1477833,7.63853997 C18.3152709,4.30883407 19.1477833,3.32970589 20.3965517,2.08106618 Z" id="Path-51" fill="#020F23"></path>
                            <path d="M6.66009852,35.7943384 C6.66009852,37.7366668 6.38259442,38.707831 5.82758621,38.707831 C4.99507389,38.707831 5.61976931,37.5464626 4.99507389,37.4591913 C4.37037847,37.37192 4.0932395,38.3023517 2.9137931,38.2916178 C1.73434671,38.2808839 1.53092158,38.2916178 0.837468967,37.4213537 C0.375167228,36.8411777 0.953044401,36.2029841 2.57110049,35.5067729 L5.41133005,34.1294854 L6.66009852,35.7943384 Z" id="Path-41" fill="#D6AC8E"></path>
                            <path d="M23.726601,13.7350368 L23.726601,17.0647427 C24.5591133,17.3422182 25.3916256,17.4809559 26.2241379,17.4809559 C27.0566502,17.4809559 27.4729064,16.8566361 27.4729064,15.6079964 L27.0566502,12.0701839 L23.726601,13.7350368 Z" id="Path-15" fill="#C09272"></path>
                            <path d="M22.6422631,6.25659896 C21.7001304,6.36115031 21.229064,7.07749165 21.229064,8.405623 C21.229064,10.5680474 21.235975,10.3701565 21.5539469,11.4874853 C21.8719188,12.6048142 23.3103448,14.9836765 24.5388081,14.9836765 C25.7672714,14.9836765 27.0972606,13.4853089 28.3054187,12.4863971 C29.5135768,11.4874853 28.604904,10.1919447 28.3054187,9.57290445 C28.0059334,8.95386416 28.6386637,8.41612774 27.8891626,7.49183826 C27.1396614,6.56754879 27.3003124,7.49183826 25.8078818,6.49292649 C25.4010838,6.22064901 24.9780593,5.72119312 24.5388081,4.99455884 L23.1364472,6.05925225 C22.9925756,6.16847683 22.8217962,6.23667564 22.6422631,6.25659896 Z" id="Path-49" fill="#D6AC8E"></path>
                        </g>
                    </g>
                    <polygon id="Path-53" fill="url(#linearGradient-64)" fill-rule="nonzero" opacity="0.517075893" points="405 272.5 427.463054 259 447 269.5 424 284.5"></polygon>
                    <polygon id="Path-53-Copy-3" fill="url(#linearGradient-65)" fill-rule="nonzero" opacity="0.517075893" points="290 353 339.5 320.5 359.5 331 311.5 362"></polygon>
                    <g id="Group-201" transform="translate(257.000000, 228.000000)" fill-rule="nonzero">
                        <g id="Group-207">
                            <path d="M-1.87096053e-12,53.6112179 L34,73 L34,18.5657219 C34,15.7216654 32.2792289,13.1603173 29.6462224,12.0851735 L2.75606354,1.10503159 C1.73346125,0.687469225 0.565977121,1.177951 0.148414756,2.20055329 C0.0504068064,2.44057289 -3.54693935e-12,2.69735834 -3.53850282e-12,2.95661683 L-1.87096053e-12,53.6112179 Z" id="Path-216" fill="url(#linearGradient-66)"></path>
                            <polygon id="Path-216-Copy" fill="#25326A" points="-1.87096053e-12 56.716081 34 76 34 67.6174075 -3.63797881e-12 50"></polygon>
                        </g>
                    </g>
                    <g id="Group-9-Copy" transform="translate(249.000000, 331.000000) scale(-1, 1) translate(-249.000000, -331.000000) translate(229.000000, 296.000000)">
                        <path d="M4.60992743,18.2246726 C4.88000764,18.147642 5.15008785,18.0770306 5.42016807,18 C5.42659855,19.0912667 6.46621639,30.497483 6.47907735,33.4053877 C6.47907735,34.6250387 6.46621639,35.8382704 6.49193831,37.0579214 C6.55624312,40.1455642 6.80060141,43.2909799 7.25716558,46.3465266 C7.74588216,49.5818113 8.56898377,52.9904149 10.7489169,55.5260051 C12.0543046,57.0473592 13.8162565,57.9524686 15.5139036,58.9474471 C17.2887164,59.9937792 19.0635292,61.0401114 20.8383421,62.0864435 C24.2786495,64.1213349 27.718957,66.1562263 31.152834,68.1911177 L31.9952271,68.6918165 C31.673703,68.7816855 31.0885292,69.0833887 30.7734356,69.0256157 C30.657687,69.0063581 30.4904945,68.8587161 30.3940372,68.8009432 C29.7638501,68.4350479 29.1400934,68.0627334 28.5163367,67.6904189 C26.355695,66.4129949 24.1950533,65.1291518 22.0344116,63.8581471 C19.7644517,62.5101118 17.4944918,61.1684957 15.2181014,59.8268796 C13.3982752,58.7612898 11.3598126,57.7984074 9.89366291,56.2706341 C6.942072,53.1829913 6.18970569,48.5868329 5.75886345,44.5042117 C5.35374312,40.704036 4.55205309,18.237511 4.60992743,18.2246726 Z" id="Fill-1" fill="#F6A4B8"></path>
                        <g id="Group-5" fill="#FF8CA7">
                            <polygon id="Fill-3" points="7.04597021 0.333799218 8.26776165 0 1.37796028 20.6981798 0.156168831 21.0319791"></polygon>
                        </g>
                        <g id="Group-8" transform="translate(0.918640, 0.051950)" fill="#DF1243">
                            <path d="M7.34912147,0.248303983 L14.9242284,11.4883507 L11.6832659,13.5874343 C11.7025573,13.9533296 12.9021176,35.4075866 13.1271845,37.474574 C14.0596043,46.0570654 13.8345374,49.2538349 19.9499251,52.9320455 C23.4866898,55.0632251 38.0581604,63.1578561 38.8298182,63.5879436 L31.0746578,68.6398664 C30.2708476,68.1648444 15.0563289,59.1394271 12.4969973,57.6758459 C6.79959091,54.4148843 6.0472246,47.1033976 5.57136898,37.0188097 L4.56472307,18.1900119 L0.423493125,20.8668249 L7.34912147,0.248303983 Z" id="Fill-6"></path>
                        </g>
                    </g>
                </g>
                <rect id="Rectangle-3" fill="#091D3C" fill-rule="nonzero" x="262" y="244" width="2" height="29" rx="1"></rect>
                <rect id="Rectangle-3-Copy-5" fill="#4577BB" fill-rule="nonzero" x="266" y="265" width="2" height="3" rx="1"></rect>
                <rect id="Rectangle-3-Copy-12" fill="#CADEF1" fill-rule="nonzero" x="276" y="258" width="2" height="3" rx="1"></rect>
                <rect id="Rectangle-3-Copy-7" fill="#DF1243" fill-rule="nonzero" x="275" y="264" width="2" height="10" rx="1"></rect>
                <rect id="Rectangle-3-Copy-14" fill="#CADEF1" fill-rule="nonzero" x="277" y="246" width="2" height="9" rx="1"></rect>
                <rect id="Rectangle-3-Copy-8" fill="#FFFFFF" fill-rule="nonzero" x="270" y="249" width="2" height="16" rx="1"></rect>
                <rect id="Rectangle-3-Copy-6" fill="#4577BB" fill-rule="nonzero" x="280" y="257" width="2" height="24" rx="1"></rect>
            </g>
            <g id="Group-64-Copy-5" transform="translate(274.664503, 181.646899) scale(-1, 1) rotate(-1.000000) translate(-274.664503, -181.646899) translate(266.164503, 172.146899)" fill-rule="nonzero">
                <path d="M13.1641026,7.80938776 L13.1641026,10.8004488 C13.1641026,11.5931791 12.7558649,12.3300339 12.0837726,12.7504067 L9.44444444,14.4012245 L9.63042735,16.34 L15.4888889,12.8502041 L15.302906,6.84 L13.1641026,7.80938776 Z" id="Path-71" fill="url(#linearGradient-67)"></path>
                <path d="M4.85299145,7.80938776 L4.85299145,10.8004488 C4.85299145,11.5931791 4.44475379,12.3300339 3.77266154,12.7504067 L1.13333333,14.4012245 L1.31931624,16.34 L7.17777778,12.8502041 L6.99179487,6.84 L4.85299145,7.80938776 Z" id="Path-71-Copy" fill="url(#linearGradient-68)" transform="translate(4.155556, 11.590000) scale(-1, 1) translate(-4.155556, -11.590000) "></path>
                <polygon id="Path-66" fill="#18224F" points="0 4.56 8.5 0 17 4.37 8.5 8.74"></polygon>
                <polygon id="Combined-Shape" fill="#1B2862" points="8.68888889 8.79573333 8.59126092 19 0 14.0904 0 4.56"></polygon>
                <polygon id="Combined-Shape" fill="#32438F" points="8.31111111 19 8.35857369 8.76196808 17 4.37 17 14.1866667"></polygon>
            </g>
        </g>
    </g>
</svg>