<svg xmlns="http://www.w3.org/2000/svg" xmlns:xlink="http://www.w3.org/1999/xlink" width="600" height="344" viewBox="0 0 600 344">
    <defs>
        <path id="a" d="M0 0h600v344H0z"/>
        <radialGradient id="c" r="51.747%" fx="50%" fy="50%" gradientTransform="matrix(0 .96624 -1 0 1 .017)">
            <stop offset="0%" stop-color="#447FD6" stop-opacity="0"/>
            <stop offset="100%" stop-color="#4277CA"/>
        </radialGradient>
    </defs>
    <g fill="none" fill-rule="evenodd">
        <mask id="b" fill="#fff">
            <use xlink:href="#a"/>
        </mask>
        <g mask="url(#b)">
            <g transform="translate(27 -137)">
                <ellipse cx="300.5" cy="311" fill="url(#c)" opacity=".043" rx="300.5" ry="311"/>
                <ellipse cx="300.5" cy="311" fill="#09BC8A" opacity=".05" rx="240.5" ry="249"/>
                <ellipse cx="300.5" cy="311" fill="#09BC8A" opacity=".1" rx="180.5" ry="187"/>
            </g>
        </g>
        <g fill-rule="nonzero" mask="url(#b)">
            <g stroke-linecap="round" stroke-linejoin="round" stroke-width="4" transform="translate(228 92)">
                <path fill="#DBEAFF" stroke="#4C96FF" d="M83.625 129.889h24.778V167H83.625zM12.4 0h167.228c6.848 0 12.4 5.552 12.4 12.4v111.289a6.2 6.2 0 0 1-6.2 6.2H6.2a6.2 6.2 0 0 1-6.2-6.2V12.4C0 5.552 5.552 0 12.4 0z"/>
                <path fill="#FFF" stroke="#2F416B" d="M6.2 0h179.628a6.2 6.2 0 0 1 6.2 6.2v92.763H0V6.2A6.2 6.2 0 0 1 6.2 0z"/>
                <path fill="#4C96FF" stroke="#2F416B" d="M68.12 154.63h55.787c6.832 0 12.37 5.538 12.37 12.37H55.75c0-6.832 5.538-12.37 12.37-12.37z"/>
                <ellipse cx="96.014" cy="114.426" fill="#FFF" stroke="#2F416B" rx="6.194" ry="6.185"/>
                <g fill="#FFF" stroke="#2F416B" transform="translate(148.667 46.389)">
                    <path d="M37.167 58.76a6.194 6.194 0 0 1 6.194 6.194v49.463a6.194 6.194 0 0 1-12.389 0V64.954a6.194 6.194 0 0 1 6.195-6.195z"/>
                    <ellipse cx="37.167" cy="37.111" rx="37.167" ry="37.111"/>
                    <ellipse cx="37.167" cy="37.111" rx="24.778" ry="24.741"/>
                </g>
            </g>
            <g fill="#9CA6CC">
                <path d="M343.71 110.728c-12.208-8.1-29.836-8-42.043-.006a1.942 1.942 0 0 0-.566 2.652 1.862 1.862 0 0 0 2.602.578c10.97-7.184 26.997-7.274 37.952-.006a1.862 1.862 0 0 0 2.605-.562 1.942 1.942 0 0 0-.55-2.656z"/>
                <path d="M353.188 130.278c-6.207-9.785-17.32-15.976-29.203-16.506-12.59-.56-24.37 5.207-32.07 16.643a1.943 1.943 0 0 0 .487 2.67c.857.6 2.03.377 2.618-.497 6.953-10.326 17.489-15.484 28.8-14.98 10.692.476 20.676 6.039 26.205 14.755a1.862 1.862 0 0 0 2.604.57 1.942 1.942 0 0 0 .559-2.655z"/>
                <path d="M300.218 164.389c-3.562-11.634-2.28-21.347 2.884-28.302 4.53-6.1 11.862-9.63 19.435-9.63 14.276 0 24.784 11.713 24.784 24.872 0 3.948-3.14 7.149-7.014 7.149-3.878 0-7.033-3.206-7.033-7.15h-3.766v.267h3.766c0-6.068-4.827-10.988-10.78-10.988-5.86 0-10.479 4.801-10.778 10.892-.194 3.94 1.069 9.213 3.715 13.83 3.472 6.058 8.998 10.663 16.634 13.052.994.31 2.047-.259 2.353-1.272.305-1.014-.254-2.087-1.248-2.399-6.711-2.1-11.481-6.074-14.487-11.317-2.277-3.974-3.363-8.507-3.206-11.702.202-4.104 3.223-7.245 7.016-7.245 3.874 0 7.015 3.201 7.015 7.15 0 2.559 3.766 2.559 3.766 0v-.267c0-2.56-3.766-2.56-3.766 0 0 6.066 4.843 10.988 10.799 10.988 5.954 0 10.78-4.92 10.78-10.988 0-15.206-12.115-28.712-28.55-28.712-8.726 0-17.178 4.07-22.438 11.153-5.934 7.99-7.386 18.994-3.477 31.762.31 1.012 1.366 1.577 2.359 1.26.993-.315 1.547-1.391 1.237-2.403z"/>
                <path d="M316.15 174.287c-4.158-3.622-7.919-10.979-8.975-18.073-1.214-8.148 1.102-14.77 7.257-18.487 10.989-6.636 23.835 1.395 23.835 14.093 0 1.06.843 1.92 1.883 1.92s1.883-.86 1.883-1.92c0-15.606-15.961-25.584-29.52-17.396-7.623 4.602-10.488 12.795-9.062 22.367 1.187 7.972 5.377 16.168 10.252 20.414.79.689 1.98.594 2.655-.212a1.945 1.945 0 0 0-.208-2.706z"/>
                <path d="M320.686 151.217c-.156 5.224 2.348 11.675 6.675 15.407 3.917 3.378 9.614 4.69 16.685 3.83 1.032-.126 1.77-1.081 1.646-2.134-.123-1.052-1.06-1.804-2.093-1.678-6.108.743-10.769-.33-13.805-2.949-3.402-2.934-5.466-8.25-5.343-12.359.031-1.06-.786-1.945-1.825-1.977-1.04-.032-1.908.8-1.94 1.86z"/>
            </g>
        </g>
    </g>
</svg>
