<?xml version="1.0" standalone="no"?>
<!DOCTYPE svg PUBLIC "-//W3C//DTD SVG 20010904//EN"
 "http://www.w3.org/TR/2001/REC-SVG-20010904/DTD/svg10.dtd">
<svg version="1.0" xmlns="http://www.w3.org/2000/svg"
 width="200.000000pt" height="200.000000pt" viewBox="0 0 200.000000 200.000000"
 preserveAspectRatio="xMidYMid meet">
<metadata>
Created by potrace 1.16, written by Peter Selinger 2001-2019
</metadata>
<g transform="translate(0.000000,200.000000) scale(0.100000,-0.100000)"
fill="#000000" stroke="none">
<path d="M0 1000 l0 -1000 1000 0 1000 0 0 1000 0 1000 -1000 0 -1000 0 0
-1000z m1340 453 c5 -21 30 -109 53 -195 l44 -157 -30 -48 -30 -48 30 -54 30
-53 -53 -190 c-29 -105 -54 -192 -56 -194 -2 -1 -92 20 -201 48 l-197 51 -31
54 -31 54 -58 -2 -59 -2 -148 141 -148 142 150 145 150 145 56 -6 56 -6 31 54
30 54 194 51 c106 28 196 52 200 52 4 1 12 -16 18 -36z"/>
<path d="M1019 1302 l-137 -37 -113 -108 -114 -107 180 2 179 3 59 100 c32 55
70 119 84 143 17 29 21 42 11 41 -7 0 -74 -17 -149 -37z"/>
<path d="M1185 1152 c-44 -75 -80 -144 -80 -152 0 -15 156 -289 165 -289 3 -1
23 65 46 144 l40 145 -40 145 c-23 79 -43 145 -46 145 -3 0 -41 -62 -85 -138z"/>
<path d="M774 841 l111 -110 144 -36 c79 -20 145 -34 147 -33 2 2 -34 67 -79
143 l-83 140 -175 3 -176 2 111 -109z"/>
</g>
</svg>
