<?xml version="1.0" standalone="no"?>
<!DOCTYPE svg PUBLIC "-//W3C//DTD SVG 20010904//EN"
 "http://www.w3.org/TR/2001/REC-SVG-20010904/DTD/svg10.dtd">
<svg version="1.0" xmlns="http://www.w3.org/2000/svg"
 width="900.000000pt" height="500.000000pt" viewBox="0 0 900.000000 500.000000"
 preserveAspectRatio="xMidYMid meet">

<g transform="translate(0.000000,500.000000) scale(0.100000,-0.100000)"
fill="#000000" stroke="none">
<path d="M4897 4202 l-728 -197 -107 -190 -108 -190 -225 -3 -224 -2 -539
-539 -539 -539 533 -541 533 -541 230 -2 230 -3 107 -188 c59 -103 109 -190
111 -192 8 -8 1463 -395 1467 -390 6 6 392 1444 392 1459 0 6 -49 95 -110 198
-60 103 -110 192 -110 198 0 6 50 95 110 197 61 103 110 192 110 198 0 9 -370
1397 -386 1448 -3 9 -8 17 -12 16 -4 0 -335 -89 -735 -197z m216 -360 c-2 -10
-147 -265 -322 -567 l-317 -550 -663 -3 c-578 -2 -662 0 -659 13 2 8 185 200
408 427 l405 413 545 141 c300 78 559 142 577 143 25 1 30 -2 26 -17z m491
-732 l158 -570 -158 -570 c-91 -325 -164 -570 -170 -570 -11 0 -664 1121 -664
1140 0 18 653 1140 664 1140 6 0 82 -257 170 -570z m-812 -1305 c174 -302 318
-558 318 -567 0 -12 -8 -18 -22 -18 -13 0 -271 65 -574 143 l-551 142 -406
415 c-224 228 -407 421 -407 428 0 10 136 12 662 10 l662 -3 318 -550z"/>
</g>
</svg>
