<?xml version="1.0" standalone="no"?>
<!DOCTYPE svg PUBLIC "-//W3C//DTD SVG 20010904//EN"
 "http://www.w3.org/TR/2001/REC-SVG-20010904/DTD/svg10.dtd">
<svg version="1.0" xmlns="http://www.w3.org/2000/svg"
 width="820.000000pt" height="558.000000pt" viewBox="0 0 820.000000 558.000000"
 preserveAspectRatio="xMidYMid meet">
<metadata>
Created by potrace 1.16, written by Peter Selinger 2001-2019
</metadata>
<g transform="translate(0.000000,558.000000) scale(0.100000,-0.100000)"
fill="#000000" stroke="none">
<path d="M4650 5071 c-221 -57 -336 -85 -450 -113 -47 -11 -94 -24 -105 -29
-11 -4 -51 -16 -90 -25 -99 -23 -163 -44 -173 -58 -5 -6 -21 -31 -34 -56 -14
-25 -42 -74 -62 -108 -20 -35 -36 -68 -36 -72 0 -16 -35 -20 -183 -20 l-151 0
-355 -355 c-196 -195 -365 -361 -376 -369 -19 -14 -2 -33 360 -396 l380 -380
156 0 156 0 75 -132 c74 -130 76 -133 119 -145 24 -6 87 -23 139 -37 52 -14
163 -44 245 -66 304 -81 422 -113 509 -136 50 -13 94 -20 98 -16 5 5 20 51 34
103 14 52 50 186 80 299 31 113 67 246 80 295 13 50 38 144 54 209 l30 119
-49 81 c-27 45 -61 106 -76 136 l-26 55 75 129 c42 72 76 133 76 136 0 3 -34
127 -76 275 -42 149 -78 284 -81 300 -3 17 -9 35 -13 40 -4 6 -11 28 -15 50
-4 22 -12 46 -18 54 -17 20 -36 82 -30 97 3 8 0 14 -6 14 -6 0 -11 9 -11 20 0
11 -4 28 -9 38 -5 9 -15 38 -23 65 -7 26 -17 47 -23 46 -5 -1 -93 -22 -195
-48z m-166 -333 c-10 -35 -28 -66 -138 -251 -56 -95 -147 -250 -201 -344 l-98
-173 -449 0 c-263 0 -448 4 -446 9 3 10 154 168 397 415 132 135 173 171 201
177 37 8 321 81 575 148 182 47 168 46 159 19z m253 -150 c6 -18 25 -85 42
-148 17 -63 35 -128 40 -145 5 -16 35 -123 67 -237 l57 -207 -17 -70 c-9 -39
-41 -155 -70 -258 -29 -103 -70 -250 -91 -326 -21 -76 -42 -134 -46 -130 -7 7
-126 213 -370 639 -38 66 -69 129 -69 139 0 10 20 52 44 94 24 42 91 157 148
256 57 99 135 235 174 302 38 68 71 123 74 123 4 0 11 -15 17 -32z m-606
-1018 c98 -165 340 -583 359 -619 12 -23 11 -23 -22 -19 -27 4 -364 90 -690
175 l-67 18 -269 276 c-149 152 -275 286 -281 298 l-12 21 448 -2 448 -3 86
-145z"/>
<path d="M4070 2226 l0 -145 126 -3 c69 -2 128 -1 130 1 2 2 4 69 4 148 l0
143 -130 0 -130 0 0 -144z"/>
<path d="M4708 2199 c-27 -5 -69 -12 -94 -16 l-47 -8 2 -115 c1 -64 -1 -123
-5 -133 -5 -14 -20 -17 -85 -17 l-79 0 0 -100 0 -100 80 0 c74 0 80 -1 85 -22
3 -13 6 -176 7 -363 3 -361 2 -354 53 -413 37 -44 139 -82 219 -82 46 0 208
29 226 40 11 7 12 18 2 60 -7 28 -12 67 -12 86 0 44 -15 50 -90 35 -48 -10
-65 -9 -93 2 -55 24 -58 40 -55 362 l3 290 125 5 125 5 6 60 c4 33 7 77 8 98
l1 37 -135 0 -135 0 0 150 0 150 -32 -1 c-18 -1 -54 -6 -80 -10z"/>
<path d="M3575 1916 c-74 -15 -176 -47 -238 -76 -42 -20 -47 -17 -61 43 l-7
28 -97 -3 -97 -3 -3 -522 -2 -523 130 0 130 0 0 365 0 365 24 15 c51 34 190
75 252 75 100 0 94 27 94 -428 l0 -392 130 0 130 0 0 423 c0 437 -3 476 -44
555 -9 17 -35 44 -57 59 -35 23 -53 27 -127 30 -48 1 -118 -4 -157 -11z"/>
<path d="M2050 1903 c0 -4 0 -203 0 -442 0 -482 3 -503 66 -566 36 -36 108
-65 163 -65 43 0 193 27 246 45 22 7 71 25 109 39 37 14 72 24 76 21 4 -3 11
-21 14 -40 l7 -35 100 0 99 0 -2 523 -3 522 -125 0 -125 0 -5 -370 -5 -370
-95 -38 c-74 -30 -110 -39 -162 -40 -110 -3 -102 -32 -108 426 l-5 392 -122 3
c-68 1 -123 -1 -123 -5z"/>
<path d="M4070 1385 l0 -526 128 3 127 3 0 520 0 520 -127 3 -128 3 0 -526z"/>
<path d="M5167 1903 c-3 -5 8 -46 23 -93 15 -47 39 -121 53 -165 79 -256 111
-357 132 -420 18 -55 86 -273 111 -352 2 -8 21 -13 49 -13 55 0 56 -7 21 -112
-21 -64 -78 -249 -92 -301 -5 -16 3 -17 116 -15 l122 3 78 235 c43 129 97 296
120 370 23 74 62 194 85 265 23 72 68 211 100 310 31 99 65 203 75 232 10 29
15 54 12 57 -3 4 -61 6 -129 6 -140 0 -126 10 -158 -105 -9 -33 -25 -85 -35
-115 -10 -30 -26 -82 -35 -115 -34 -115 -47 -160 -65 -215 -10 -30 -25 -80
-34 -110 -35 -118 -40 -130 -50 -127 -5 2 -13 14 -17 28 -4 13 -21 71 -39 129
-34 112 -52 172 -94 315 -22 74 -44 146 -92 303 -2 9 -37 12 -128 12 -69 0
-127 -3 -129 -7z"/>
</g>
</svg>
